<mxfile host="app.diagrams.net" agent="Mozilla/5.0 (Macintosh; Intel Mac OS X 10.15; rv:132.0) Gecko/20100101 Firefox/132.0" version="24.8.0">
  <diagram name="Pagina-1" id="Ac-OBfrbWdnEvAkecJNc">
    <mxGraphModel dx="2734" dy="691" grid="1" gridSize="10" guides="1" tooltips="1" connect="1" arrows="1" fold="1" page="1" pageScale="1" pageWidth="827" pageHeight="1169" math="0" shadow="0">
      <root>
        <mxCell id="0" />
        <mxCell id="1" parent="0" />
        <mxCell id="9Q_260vBjeD41utI28-m-216" value="" style="rounded=0;whiteSpace=wrap;html=1;fillColor=none;movable=0;resizable=0;rotatable=0;deletable=0;editable=0;locked=1;connectable=0;" parent="1" vertex="1">
          <mxGeometry x="-1388" y="150" width="468" height="540" as="geometry" />
        </mxCell>
        <mxCell id="A5pwChIiv2BdeN_x7Tfh-12" style="rounded=0;orthogonalLoop=1;jettySize=auto;html=1;exitX=1;exitY=0.25;exitDx=0;exitDy=0;entryX=0.782;entryY=0.981;entryDx=0;entryDy=0;endArrow=none;endFill=0;strokeColor=#FF0000;edgeStyle=orthogonalEdgeStyle;entryPerimeter=0;" edge="1" parent="1" source="9Q_260vBjeD41utI28-m-204" target="9Q_260vBjeD41utI28-m-218">
          <mxGeometry relative="1" as="geometry" />
        </mxCell>
        <mxCell id="A5pwChIiv2BdeN_x7Tfh-19" value="PSU2 V+" style="edgeLabel;html=1;align=center;verticalAlign=middle;resizable=0;points=[];" vertex="1" connectable="0" parent="A5pwChIiv2BdeN_x7Tfh-12">
          <mxGeometry x="0.8624" y="-1" relative="1" as="geometry">
            <mxPoint x="-44" y="-3" as="offset" />
          </mxGeometry>
        </mxCell>
        <mxCell id="9Q_260vBjeD41utI28-m-204" value="PSU 2" style="rounded=0;whiteSpace=wrap;html=1;movable=1;resizable=1;rotatable=1;deletable=1;editable=1;locked=0;connectable=1;rotation=90;" parent="1" vertex="1">
          <mxGeometry x="-1390" y="205" width="202" height="150" as="geometry" />
        </mxCell>
        <mxCell id="A5pwChIiv2BdeN_x7Tfh-5" style="rounded=0;orthogonalLoop=1;jettySize=auto;html=1;exitX=1;exitY=0.5;exitDx=0;exitDy=0;entryX=0.227;entryY=0.997;entryDx=0;entryDy=0;strokeColor=#000000;endArrow=none;endFill=0;edgeStyle=orthogonalEdgeStyle;entryPerimeter=0;" edge="1" parent="1" source="9Q_260vBjeD41utI28-m-205" target="9Q_260vBjeD41utI28-m-218">
          <mxGeometry relative="1" as="geometry">
            <mxPoint x="-1160" y="271" as="sourcePoint" />
            <mxPoint x="-1102.92" y="139.99999999999994" as="targetPoint" />
            <Array as="points">
              <mxPoint x="-1114" y="400" />
              <mxPoint x="-990" y="400" />
              <mxPoint x="-990" y="320" />
            </Array>
          </mxGeometry>
        </mxCell>
        <mxCell id="A5pwChIiv2BdeN_x7Tfh-15" value="PSU1aV-" style="edgeLabel;html=1;align=center;verticalAlign=middle;resizable=0;points=[];" vertex="1" connectable="0" parent="A5pwChIiv2BdeN_x7Tfh-5">
          <mxGeometry x="0.0571" y="-4" relative="1" as="geometry">
            <mxPoint x="24" y="-71" as="offset" />
          </mxGeometry>
        </mxCell>
        <mxCell id="9Q_260vBjeD41utI28-m-205" value="PSU 1" style="rounded=0;whiteSpace=wrap;html=1;movable=1;resizable=1;rotatable=1;deletable=1;editable=1;locked=0;connectable=1;rotation=90;" parent="1" vertex="1">
          <mxGeometry x="-1220" y="200" width="211" height="160" as="geometry" />
        </mxCell>
        <mxCell id="A5pwChIiv2BdeN_x7Tfh-6" style="rounded=0;orthogonalLoop=1;jettySize=auto;html=1;exitX=0.944;exitY=0.964;exitDx=0;exitDy=0;entryX=0.144;entryY=0.964;entryDx=0;entryDy=0;endArrow=none;endFill=0;edgeStyle=orthogonalEdgeStyle;entryPerimeter=0;exitPerimeter=0;" edge="1" parent="1" source="9Q_260vBjeD41utI28-m-218" target="9Q_260vBjeD41utI28-m-219">
          <mxGeometry relative="1" as="geometry" />
        </mxCell>
        <mxCell id="A5pwChIiv2BdeN_x7Tfh-9" value="GND" style="edgeLabel;html=1;align=center;verticalAlign=middle;resizable=0;points=[];" vertex="1" connectable="0" parent="A5pwChIiv2BdeN_x7Tfh-6">
          <mxGeometry x="-0.1852" y="3" relative="1" as="geometry">
            <mxPoint x="-3" y="12" as="offset" />
          </mxGeometry>
        </mxCell>
        <mxCell id="A5pwChIiv2BdeN_x7Tfh-8" style="rounded=0;orthogonalLoop=1;jettySize=auto;html=1;exitX=0.875;exitY=1.012;exitDx=0;exitDy=0;entryX=0.283;entryY=1.036;entryDx=0;entryDy=0;endArrow=none;endFill=0;strokeColor=#009900;exitPerimeter=0;entryPerimeter=0;edgeStyle=orthogonalEdgeStyle;" edge="1" parent="1" source="9Q_260vBjeD41utI28-m-218" target="9Q_260vBjeD41utI28-m-219">
          <mxGeometry relative="1" as="geometry">
            <mxPoint x="-950" y="160" as="sourcePoint" />
            <mxPoint x="-950" y="565.8400000000001" as="targetPoint" />
            <Array as="points">
              <mxPoint x="-930" y="460" />
              <mxPoint x="-970" y="460" />
              <mxPoint x="-970" y="584" />
            </Array>
          </mxGeometry>
        </mxCell>
        <mxCell id="A5pwChIiv2BdeN_x7Tfh-10" value="TX" style="edgeLabel;html=1;align=center;verticalAlign=middle;resizable=0;points=[];" vertex="1" connectable="0" parent="A5pwChIiv2BdeN_x7Tfh-8">
          <mxGeometry x="-0.0714" relative="1" as="geometry">
            <mxPoint y="-16" as="offset" />
          </mxGeometry>
        </mxCell>
        <mxCell id="9Q_260vBjeD41utI28-m-218" value="&lt;font style=&quot;font-size: 10px;&quot;&gt;GX16 8 pin male&lt;/font&gt;" style="rounded=0;whiteSpace=wrap;html=1;movable=1;resizable=1;rotatable=1;deletable=1;editable=1;locked=0;connectable=1;rotation=90;" parent="1" vertex="1">
          <mxGeometry x="-1030" y="370" width="220" height="20" as="geometry" />
        </mxCell>
        <mxCell id="9Q_260vBjeD41utI28-m-219" value="&lt;font style=&quot;font-size: 10px;&quot;&gt;GX16 2 pin male&lt;/font&gt;" style="rounded=0;whiteSpace=wrap;html=1;movable=1;resizable=1;rotatable=1;deletable=1;editable=1;locked=0;connectable=1;rotation=90;" parent="1" vertex="1">
          <mxGeometry x="-980" y="600" width="120" height="20" as="geometry" />
        </mxCell>
        <mxCell id="9Q_260vBjeD41utI28-m-253" value="Power box Design" style="text;html=1;align=left;verticalAlign=middle;whiteSpace=wrap;rounded=0;" parent="1" vertex="1">
          <mxGeometry x="-1388" y="690" width="160" height="30" as="geometry" />
        </mxCell>
        <mxCell id="A5pwChIiv2BdeN_x7Tfh-4" style="rounded=0;orthogonalLoop=1;jettySize=auto;html=1;strokeColor=#FF0000;endArrow=none;endFill=0;exitX=0.997;exitY=0.374;exitDx=0;exitDy=0;exitPerimeter=0;edgeStyle=orthogonalEdgeStyle;entryX=0.151;entryY=0.99;entryDx=0;entryDy=0;entryPerimeter=0;" edge="1" parent="1" source="9Q_260vBjeD41utI28-m-205" target="9Q_260vBjeD41utI28-m-218">
          <mxGeometry relative="1" as="geometry">
            <mxPoint x="-1150" y="249.34000000000012" as="sourcePoint" />
            <mxPoint x="-930" y="302" as="targetPoint" />
            <Array as="points">
              <mxPoint x="-1094" y="390" />
              <mxPoint x="-1010" y="390" />
              <mxPoint x="-1010" y="303" />
            </Array>
          </mxGeometry>
        </mxCell>
        <mxCell id="A5pwChIiv2BdeN_x7Tfh-11" value="PSU1a V+" style="edgeLabel;html=1;align=center;verticalAlign=middle;resizable=0;points=[];" vertex="1" connectable="0" parent="A5pwChIiv2BdeN_x7Tfh-4">
          <mxGeometry x="-0.0594" relative="1" as="geometry">
            <mxPoint x="30" y="-59" as="offset" />
          </mxGeometry>
        </mxCell>
        <mxCell id="A5pwChIiv2BdeN_x7Tfh-13" style="rounded=0;orthogonalLoop=1;jettySize=auto;html=1;exitX=1;exitY=0.5;exitDx=0;exitDy=0;entryX=0.826;entryY=0.981;entryDx=0;entryDy=0;entryPerimeter=0;endArrow=none;endFill=0;edgeStyle=orthogonalEdgeStyle;" edge="1" parent="1" source="9Q_260vBjeD41utI28-m-204" target="9Q_260vBjeD41utI28-m-218">
          <mxGeometry relative="1" as="geometry" />
        </mxCell>
        <mxCell id="A5pwChIiv2BdeN_x7Tfh-20" value="PSU2 V-" style="edgeLabel;html=1;align=center;verticalAlign=middle;resizable=0;points=[];" vertex="1" connectable="0" parent="A5pwChIiv2BdeN_x7Tfh-13">
          <mxGeometry x="0.8678" y="-2" relative="1" as="geometry">
            <mxPoint x="-42" y="6" as="offset" />
          </mxGeometry>
        </mxCell>
        <mxCell id="A5pwChIiv2BdeN_x7Tfh-17" style="edgeStyle=orthogonalEdgeStyle;rounded=0;orthogonalLoop=1;jettySize=auto;html=1;exitX=1;exitY=0.137;exitDx=0;exitDy=0;entryX=1;entryY=0.75;entryDx=0;entryDy=0;exitPerimeter=0;endArrow=none;endFill=0;" edge="1" parent="1" source="9Q_260vBjeD41utI28-m-204" target="9Q_260vBjeD41utI28-m-205">
          <mxGeometry relative="1" as="geometry">
            <Array as="points">
              <mxPoint x="-1234" y="420" />
              <mxPoint x="-1154" y="420" />
            </Array>
          </mxGeometry>
        </mxCell>
        <mxCell id="A5pwChIiv2BdeN_x7Tfh-18" value="V-" style="edgeLabel;html=1;align=center;verticalAlign=middle;resizable=0;points=[];" vertex="1" connectable="0" parent="A5pwChIiv2BdeN_x7Tfh-17">
          <mxGeometry x="0.1889" y="-1" relative="1" as="geometry">
            <mxPoint y="13" as="offset" />
          </mxGeometry>
        </mxCell>
        <mxCell id="A5pwChIiv2BdeN_x7Tfh-23" style="rounded=0;orthogonalLoop=1;jettySize=auto;html=1;exitX=1;exitY=0.75;exitDx=0;exitDy=0;endArrow=none;endFill=0;edgeStyle=orthogonalEdgeStyle;" edge="1" parent="1" source="9Q_260vBjeD41utI28-m-205">
          <mxGeometry relative="1" as="geometry">
            <mxPoint x="-930" y="400" as="targetPoint" />
            <Array as="points">
              <mxPoint x="-1154" y="420" />
              <mxPoint x="-930" y="420" />
            </Array>
          </mxGeometry>
        </mxCell>
        <mxCell id="A5pwChIiv2BdeN_x7Tfh-26" value="PSU1b -V" style="edgeLabel;html=1;align=center;verticalAlign=middle;resizable=0;points=[];" vertex="1" connectable="0" parent="A5pwChIiv2BdeN_x7Tfh-23">
          <mxGeometry x="0.1117" relative="1" as="geometry">
            <mxPoint x="56" y="5" as="offset" />
          </mxGeometry>
        </mxCell>
        <mxCell id="A5pwChIiv2BdeN_x7Tfh-24" style="rounded=0;orthogonalLoop=1;jettySize=auto;html=1;entryX=0.997;entryY=0.668;entryDx=0;entryDy=0;endArrow=none;endFill=0;strokeColor=#FF0000;entryPerimeter=0;edgeStyle=orthogonalEdgeStyle;exitX=0.613;exitY=0.95;exitDx=0;exitDy=0;exitPerimeter=0;" edge="1" parent="1" source="9Q_260vBjeD41utI28-m-218" target="9Q_260vBjeD41utI28-m-205">
          <mxGeometry relative="1" as="geometry">
            <mxPoint x="-930" y="370" as="sourcePoint" />
          </mxGeometry>
        </mxCell>
        <mxCell id="A5pwChIiv2BdeN_x7Tfh-25" value="PSU1b +V" style="edgeLabel;html=1;align=center;verticalAlign=middle;resizable=0;points=[];" vertex="1" connectable="0" parent="A5pwChIiv2BdeN_x7Tfh-24">
          <mxGeometry x="-0.0839" relative="1" as="geometry">
            <mxPoint x="75" y="-5" as="offset" />
          </mxGeometry>
        </mxCell>
        <mxCell id="A5pwChIiv2BdeN_x7Tfh-35" value="" style="shape=image;verticalLabelPosition=bottom;labelBackgroundColor=default;verticalAlign=top;aspect=fixed;imageAspect=0;image=data:image/png,iVBORw0KGgoAAAANSUhEUgAAAPkAAAFXCAYAAABgLui6AAAAAXNSR0IArs4c6QAAAARnQU1BAACxjwv8YQUAAAAJcEhZcwAADsMAAA7DAcdvqGQAADSOSURBVHhe7Z0JeEznF8Z10YXyV1TRVlF7i9Za+65RSxGCopbaq/aldrWXotS+Val9SS21bxVrrEU0JEFQYgkRxJ73P++de8edJMgyk8zce37Pc5428925M3fc937fd77znZMMgiAYGhG5IBgcEXlS8+QmTh3agiVzpmD8zz/jZ4vNXLAUW3yDcOuJeoyNSIQe347pw35Sjvt58R5ceqQ2aURew67FM5X20WMmYvm+i2pDVO7gyPr5ynErfc8h6mme8gCB+9Zh1q9j8fMvU7B0y1HcVFvixkOcP7gR8yf9onzmrMV/4tDZcLVNcCYi8iTjEfy3/o7O9avg0xzp8XKyZEhms1eRIXsReDTshN922gvw5tFlqJVVPS55VnRf5WeR/lMubByIIsnV9rdKYNzOS2qLPZf+noAyaa3HlR78l0Xy0Xl0aRfGd6yDwln/p36vZEieIS9qdJ2Kg1fVg2LB4+vHMKt3A5TImdZ2nmQvp0Cu4tXRb+5OXFePE5yDiDxJuI09v/VA0Uwpnt70yV7Cyy+/rNjT15LhjYxlMGTFMdy3KfkJTv3VE0VUgf7voxbYcPahtckiyu8rp7M+MJJnQvNph2LooZ/g3N/T0DBvGttn1Bi9GXfVVhv3/DG5QUG8qh6T7CXLd3tJ/f9kqVGxzwbcUA99Lg9DsLx3CbypnSdZlGtMVQqD1wbaPagExyIiTwJC/h6H8h++pNzkr6YrgFbD5mL38VMICAiw2Gkc2DIfXWvmRnJFCK8jX8tfcPqW+mby5DwWti2H15X2N/BJ12W49SgUm/rXREpFiC8hR8OxOHlfPV7hMW4H7cf0Po2QM/UrVoG9zGNjEnkkzqzogqyvWz+/cOvx2H3a8t32LkCjXKmU96TI5Ym/gl8szVtH5qDcm9bvlK1CWyzde1q5xm1TO6PAa9bPL9B0JAIj1DcIDkdEntg8OIVfmhRQbu5kbxdEf++TFvlFJ+LiLkzq8z2GztmAkxfD8CiKniID16NRUavgXn43O5r16ACPLFbRJP+gOuYeDlOP1LiI38vkUj/3Y5T7shzyZbAeH03kkZcw17MAXuG53i+Jef7q6xbOrPwBLVs0RNu+U+Bz3u4pEiMn5rdBKn7mKznQbP4p9VULEScwvPqryue/X6sHDsRvoi/EAhF5IhN+ZAZqZreKK0/H+bimvh4fTi9qh1yvWM9ls9feRcPJ26MPv3EWkyuVxafFPDBq1TEE7/8V1d+3vieayMP3o1XR95S2j4qMRcDDWzi6ZS0WL16BrYfO4MXSfsrF/cvw65CeaDV8PBb56z7lrh9GeVhHFLnrD8WJ6F9YcBAi8kQmcGk/FFEEmRY/LDmpvhpP7p/HtJaf43Wb0N9AXs9xOBSj0zoM//gcQdBl67jhxt7xqJr5GSIPWo5yH7+ltGXO2hAdO9fCR29Yj30t82eo320CfENiGn/EnnPrBuBjZbieFg1G74jR8Sc4BhF5ovIAvhM64ENFkIUxeoP98lbkRR+M6PUtmjZtGsXGYat/zMtNF9Z1R1plzkvLiNYTfdWW53N197hnijzy+GyUyfWGes6YrWiTyTgVz9730u7pqPax1fGXoWB7rL14T20RnIGIPFF5jGMzuiGvIpT06L3sX+iXwiOPTka+NNEFlSxZeYzfckU9SsftfzDyiwJ41eb1fg0ZK3bHtvOqt/05PFfkfnNRJveb1nO+khplWo/Hxt27sXvzfHT0eF+ZqydLVQB9t1iX544v6oZaZUqiZEmdNRqMzeeietOeIGjDBFTJ8bpy7rey1sCvW4Nj9EkIjkNEnshc2f4zKqjLX1VHbIa+D4s8vRwNK+bGhx9+aLEseOftlFahJauJqX9Hnb0/wI7x1ZFZFfjLr72mLne9jvK9VuJatEAae54ncpxbgyr5rWvaaT9qgDW6Ace1TYORKRXflw7VBvytvLZzcGHlWDv7nwdmH9OPPh7i6JI+KPWetT3j580wd3+ICDwREJEnMpGXd+C7MtbgkjeKfocd+qCSyCd49OghHj2mK/0+1oxppIqmRjSRh++fiVLZXlPaX8pSBD/8Mhwt8qnr7ilLYPiW/9QjY+a5Ir/ti66FPlDa3vm4NQ7oO2T/hcianst/aVC51QbLowb4d0kP1KlQFmXL6qzJUGwJ1t54H0cX9kDhdPy8FCjaeBh8LvKdQmIgIk90bmPXqCZIpzjLUqJM8+HY5R81rOQxLvlvxg8NtR6yGn7dpnsa3D6GMfXy4DWl7S2U70exPcDRae3xXgqrcNOW64L9zwkle67IcRMrWhRT1ulfTZcV/dY+7cqDFn6H9PQBJM+IuhN8Lf3zizm3/SeU+cDynpQfouYQ79gF0QgOQ0SeBDy5egADamdVBZwM7332JVp27o0f+vRBnz690amVF0rny2Brfzl9fSw9dlt99134TG2KzKqzLUPJbtgdoo7Nb5/GTw018aeAR+8Nz4wzf77IgdD9I1FcfWCkylserXtYvlvvb1E+h9Uh98b7NTDndNR3RefR+R1o86kaXfd2btT5ri8G9e9ruU5eq2rTV+JEmMS8OQsReRIRHrwTQxuXwv8UQT7DXk6BT+t0xh9bjuOmOroN2TcLVd5Vw0LTFseQLeetDSrhh2ejVhZ1Lp/yU/Rbd0ZtsefqrjGo+I71czxGbowmcjwJw/YRzZBN+y56e/1jdJi8J/p7ovEIu8d7qJF5z7E8Xvjj7AucCEK8EZEnIU9uXcbRzQswvFdjVMyTA+lTp0bq1JmRt4QH2gz6FX9uP4LzN3UD4jtnMLN1Ybz9ZkrLce+iep9V0DrxpzyA75RW+Ojd1HjrrVT45Kv+OBSqNum4tm8Saufm56WG14TtiDGq9HEYjq2ahPY1iuLDDJZjM+dE2frdMWdzQAw75GLiAqbUzI1UynU9xzw6Y/VFEbmzEJG7Ao/v487NG7h+7RquXQvFzfC7eBjT6PXJA9y6dhkhV3ncddyN8SALT+7hxnXLMVev4MrVUETE4MJ+8jACYaE8zzXcinj43A0iD+/eQijPF3oDt+/FxR/+CHcs77uqXNdz7OZt3BeNOw0RuSAYHBG5IBgcEbkgGBwRuSAYHBG5AXny5AkePHiAiIgI3L59G7du3cLNmzcVu3HjhvLfsLAwhIeH486dO7h37x4ePoxNWIvgjojI3ZhHjx4p3umgoCAcPnwYq1atwsSJE/HDDz+gRYsWqFWrFsqVK4dChQohX758yJUrF3LmzIncuXMjf/78KF68OKpUqYL69eujQ4cOGDJkCObMmYPt27fDz88PFy5cUB4QgnsjInczzp07h7///lsRY9euXeHh4YHs2bNHyw2XUEuVKhU+++wzNGzYEMOGDcPKlSuVB0loaAyL7oJLIyJ3A/bv34/p06crvS23cb71ljWhQ2Ibd8dxdNC/f38sXbpU6ekF10dE7qL4+/vjl19+gZeXFz766KMYRZeU9sYbb6BEiRLo2LGj0stz7i+4JiJyF4KOsr/++gvNmjVT5s2vvKJmVXVxS5s2LYoUKYJBgwbhxIkT6tUIroKI3AW4fPkyZs2ahc8//xz/+9/TQgZ6cwXBa9/hpZesOeKjtvP1zJkzKw+p3bt3K557IekRkSchwcHBypD8008/jVE0KVOmxCeffIJ27drhyy+/tB2TIUMG1K1bF40aNUo0q1y5ss0XkCZNGnTv3h21a9dW5un676zZm2++CU9PT2zatEmG8kmMiDwJYM/NpS4OcWMSSNasWZW5+O+//47r162ZH8aMGWPrST/++GNlzp6Y8Ptq3y9jxoy4csWac+7QoUMYOnQoypcvrzyUtGM044OpcePG2LJlCyIjZc94UiAiT2T++OMPVKpUKZoYaAULFsSPP/6oDHWj8ttvvynOLh7HIT3n7okFg2voYNO+Jx2B9B/oYZDNsmXL8M033yjbR7VjNeNrPMfBgwfVdwiJhYg8kThw4IASoMJhbFQBMFhlwoQJ+Pfff9Wjo3P06FHFwaW9h06uxILTCgbOaJ9dr149tSU6jLTbtm0bvv/++xh7dgbjsKrp3bsvTjkhOAYRuZO5f/8+Jk+erAzBo97wjEDjDU8RvQiGnZYuXdr2Xs7RGZ6aGGzevBmvv25No0ybOnWq2vJs+H05ImnZsiVee82acFKzV199FVWrVlUi6wTnIyJ3IseOHVN6vag3efr06dG5c2ecP2+fuulFMAhFOweH7Fu3blVbnMfjx4+VXln7XIo9LstkfMitW7cOX3zxBZInT247D+3dd99VRjCMoRech4jcCdDB9OeffyJPnjx2NzUdZ9WqVYOPj496ZNzg+/TRbvR6c3jsTI4cOaKIUfvMGjVqxGtpjELmSkLevHlt59KMTkbGygvOQUTuYOiAGjBgQLT1bsaX00OdkA0fFDTn9do5Kfj169errY6HDjf956VIkULZBJMQTp48qYiaQ3btvDQ6HbncJjgeEbkDOXPmjLKjS3/z0rjTa+/evepRCWPnzp1Ily6d7dwFChTAqVO6ksAOZO7cuXaOwjp16jjEYcZzMPiHDz7t3DQG0nAVQXAsInIH8c8//6BChQp2Ny29y8wrznVxR0GHFjeq6D+H4nN0wAl3ur3//vu2z2AAzsaNG9VWx7Bv3z47ZyKNo4W+fftKtJwDEZE7APbShQvb1wOjQBYsWKA4rhwNRwwsRaT/vObNm+PSJWsBwoRCbzpj57VzM1x13LhxTrkWOh/btGljF/HH/6dXXgsEEhKGiDyB0BkW1ZnEiDRGeDmTXbt2RdudRg82RxTxhcNobiGNGqraoEEDJXuMs+DohBF9Uf0Y/NyQkBD1KCG+iMgTAIXGtW79jckeloEriQG3eOqH1LQcOXJg0qRJuHjRvvb5i2CwzrfffqsMl/XnY8x6QECAepRzYTQgpwX6z2eMvhZCK8QPEXk84XyS0Vv6G/Krr77C2bNn1SMSB66Vx7QsRf/AqFGjlICTq1f1pVOtsPcMDAxUem6u2ce00YRZYeK6lp9QvL29kSVLFrvvwVgDprkS4oeIPB6w1+OQXH8jclnIkQ62uMDvU7FiRbvvo1mmTJmUNn4/zn07deqkzN/prCtatGi0ABUad5kx8CaxIuqiwrj8qJ53bnKRfHPxQ0QeR44fP24Xx02jgJLaSfTff/8pKaJiCp+NrXHtmqMROt64Rp6UUOjZsmWz+37c3uoM55/REZHHAeY0Y+JE/Y3HCDBXcg5xCyoTL7KXpiOLnnH9941qDLllmC179sWLF7tUb8mowffee8/2XRkxSH+DEDdE5LGE3mV99BetWLFiyrzWFeH3peefu9UY/sohO5NTMAkFHwB8OLVq1QrTpk1T/Aico7siCxcuxNtvv237zd955x2sWbNGbRVig4g8ljDuWt8r0ovtbnujmafdHee13MWn3wVHf0hirWAYARF5LOD+aP3SDjOjODNmXIhOly5dbL8/jaHC3CcgvBgR+QvgUJZFBrSbi9lZZsyYobYKiQWX0Lhmrxc6s+gIL0ZE/gK+++47uxuL81gOe90Jo+RWYz45fUwAHYYyonoxIvLnwEARfaglHW2sO+ZuMFx19uzZSo00mjvv9OIKgH5nHFNnSejr8xGRPwNGeumH6dze6a69Bkce1atXt10LPevuStQ97jSuIMj6+bMRkccARcEbR38j9ezZU211PygAClu7lpo1a6ot7glHU+zBtevhPnRujRViRkQeA1xf1nvTmR/dUds4kwKKnMLWrodFC90drp/rq8owzl7CXmNGRB4FJito2rSp7eahMZ+4O2NEkTMVlj4LD+fpixYtUlsFPSLyKKxdu9Yu8II3krvnCDeiyAn3zutz0TOqTxJNREdEroNi1ouBnnXu8HJ3jCpyLg327t3bdl2MSGRpKcEeEbkO9uL6rZcs68O84e6OUUVOTp8+bbdbrVSpUkm2RdZVEZGr0KOu90DT8ebr66u2ujdGFjmvbciQIbZrY29Op5zwFBG5CuPT9YX6jNKLEyOLnLAwAzcMadfHCqtG+bdzBCJyFWYH1XaZsWKIkep0GV3kvD5G8mnXx6ITGzZsUFsFEbkF1vbS9wQsru9u8enPw+giJ3v27LFLMMGHtmBFRG6BlUW1XpzZSpkv3UiYQeT0tDO7jXaNTLL5vFLQZsL0ImflEZYB1m4OZk8JDQ1VW42BGUROmNJZ27zCVRJWTBVE5NixY4etthh7c667Gg2ziJx7zpneSrtO9uxSbklEruQm124K9gKOKkzoSphF5ERfS5255Pfv36+2mBdTi5zDcv0WzBIlSrh9CGtMmEnkLMrI7D28To7MpkyZoraYF1OLnJlGmP1Tu/mNmk7ITCLnTjR99phmzZoZ8sEdF0wtctbf1m4Gbls06p5kM4mcSSXatWtnu1YKnqGvZsa0ImdElP5mYJpfViExImYSOVmyZIntWlkGedOmTWqLOTGtyFkpU59dhBU9nVmeNykxm8hPnTpll5tv9OjRhklmGR9MK3LWNNPvG586daraYjzMJnLuKWdVV+16mTWG8RBmxbQi1w/pWA+MG1SMitlEzpJPXbt2tV1vvnz53Dp9V0IxrchZmle7CfLkyYOTJ0+qLcbDbCInTEGtXS+dqkb+930RphQ5n/Senp62m4D7yJOiyD3rme/evVvJZsKgnKFDhypVO9etW+fQuOvEFDkdmpwKsSIp68dxrzfnxMyXzsCUxAoZ5i5ClmLWrtnb21ttMR+mFDkdbPnz57fdAKySkpi7zvhAmThxIqpWrWoL3IhquXPnRrdu3RwSgZdYIueUp3Xr1siSJYvdtWiWMmVKpf45NwCFhYWp73IOzP+mr9XOB41ZMaXI6VnXB8H89NNPaovz2blzpyJu7bNfZAzNHDduXIIeQs4WOR9avXr1Uvbh67/7s4zD57p16+LYsWPqGRwPi2OUKVPG9plcLuXvYEZMKXImZ9QvsTAoJjFYtWoVPvjgA9vnasZhZfbs2ZXADX0tbs24o4pJEZiGOD44U+SccjRo0MDu+2rGWmV0erFn53p11Hbms3dWbHl4eDi8vLxsn8UpWXx/P3fHlCJfvXq1MnTkPz73j/NvZ8N8cfqkBrRcuXJh+PDhOHz4sFI9NTg4WFnj5fyVN6W+eABFMmLECPVsccNZIuf8mwUgtfPS+Ls2atRI8Ssw0ow9KiueUMx8UL3//vt2xzPxor+/v3pGx8F1cabw0j6HJa+MGgfxIkwpcnpetTVyR5fYiQi+gvAI+2FhRESEIizthuPGCfYy586dU4+IDrdIjh8/3i7vHEcf8YnecobIKSIWndA/iPgQY4GDZ+VXY8gpxf7555/b3kPjPP7pdOQxws7sVqY1u/aewe0EpGobOHCg7TP4cDHrWrkpRU4njHZzsjdlT+oIQrbPROtsTbDshP3NNH/+fLvAG3r26ReIDQzS4WhDey/3SMc1SaEzRM5KoiVLlrSdk0Pz2I6IOFopWLCg7b0skLB9+w6l7WrgJsv8uYSSyKP8p1XQbfk+3InnVJq+DP33M+tauSlFrl8j5zCON13CCIfv4p/Qu3J5lM7QFMv9n+56Yg+l385Kj29cHE4UtL6KJx2GTHQRF5whcgpaOx+NS2VxYcuWLUiVKpXt/d269bDMme8h0O9vTDpirWn22G8UCtfpgTWBEcrfcWX69Om28/NBYtZ0UKYUuT4aikPH5w2bY8dtHFo+B5v2rMG0cn2x+p+nyf0ZhKFP/s+kBnGFS1NaAUbOzeO6JdbRImecQefOnW3nozMxrg9KnqNevXq2cxQpUhgXL0bZIBS8HKW/6ItFfvErZMj4A+38nOocPHhQbTEXphR5hw4dbP/4XGZx3DDuFKaW+B7eR5+uAa9YscLmMWfPRadaXGFvXqxYMdt3bty4sdoSOxwtclYoqVy5st33iU+apRkzZtjOwaw8zJr7lItY1rEjOv28HiH347e5hEUWtASd9G0w8MiMmFLkbdq0sd1cTMQf2/nxi4h8cAxTSnSyE/m0adNs83E6f+J7ozGIRPvO9LxTuLHF0SLn76UPJuL0Jz67vDhC0c5B27PHGvjzKOISFvdpjHbfjkZAePzXtrk/QYt64wPWrDXMReROFjkdZ9wAw8/isHbfvn1qS9zQpxvmHD8uwTHOEDn332vnoxc7PlB02jloe3198eTOdSzo0w/fDl2HhOZzoci12nYUeVx9GUbBlCJv37697cZy5HA98sFhjM3bEosPPp2Tc3iuBd7wvytXrlRbYg/nr1xP1r4zg0/igqNFfuPGDZQrV852PjoG45NiSZ+Z57XX3kDg6SMIWNwHedKURa/J0y2joKmYPHkrgsLiF+3H5TwtCIfD9V27dqkt5sKUIu/SpYvt5mLyRgahOILIxyHYN20t/C4/Dbrg8pwWy835YY8ePdSW2MO1ZX0gTb9+/dSW2OFokTNyTJ9Vh9Vn4ppVhyMR5l/TzlGgQEFcvnAWF/YvRPde3dDpuw7Kw7h9h3k4ciV+kWrz5s2znZ8PWCOUoY4PphQ5RaL94zM7jDNzgDHKqlKlSrbP4zA3MDBQbY0d3ECj9UhcCmI0WVxwtMgJe0ntfLS4ZkVlWSNei/Z+PjTuOzjsVO/Yo/OThRHNiClFzg0pWjAM95IfOXJEbXEOkydPts0NKdbmzZsrWUVjAwWdJk0a281KrzYj6OKCM0TOZccCBQrYzsnNKbF1bHG4X61aNdt76Vlfv3692uo4uNVV+wwW0Lh48aLaYi5MKXI+4TVnGD3ePj4+aotz4PJS6dKlbTcchc6ei5s7ngWXzTh/58YV7X2s1rl8+XL1iNjjDJHTm87tstoSFY3bY5n3nOGrzyIgIABff/217T00xro7I+R08ODBts9g+LKEtZoIJjTQNqhQOGvXrlVbnAdvfv3wlFa2bFll3siAGTr/6LU+c+aMsoecDwF9OCstPvN54gyRE+ZSo0D135HX2LdvX2UVgb4OXhPn69zfPXPmTGXkpD+eowFnjKT4EOrUqZPtcxhGKxtUTARvQM3jTaPQEgN+jlZ3TW8Mda1YsSI8PDyUMFt9RhPN6KRiEEp8cJbICXeY6YfemvEhWrx4caWNnngtYk9vH330kdOWtdhrM4Gj9ln8bWWrqYlgr6kX25gxY9QW58PhNiunap/9ImNvPmDAgASlTXKmyAnn5/QzaM7B2BiXLp1Zd47zb/0yH3e6PW8aYWRMKXI6rvSldBiHnZg3APdPc77IHXDad4hqTAvFnsgRe92dLXLCnpMhvNw9pvk7YjI+4Oj45D5zZ8I8cxwpaJ8b3734RsCUImdwiT5MlP9Pj29iw/k3/QPcwdW2bVulwEP37t0xa9YsZQ4bWw/8i0gMkWtwns4emisKjEdo2bKlsldg5MiRyl54Z4tbg55+bUWDxr3vZsWUIqdThnXItRuAa9cJ324af/h9+ODhnJGCdDSJKXI9DHjhNfHaEhv9DjQulx49elRtMR+mFDlhIgftJuC8l5lIjEpSiTyp4PUysaR2vTlz5jRsnbvYYFqR88munztyiGxUzCZyOim/+OIL2/UyMywTO5oV04qc67effPKJ7UZgnHRc0yq5C2YTOX0d+pgE+jzM6lknphU5Pex0Cmk3AtennxeB5s6YTeRMfa1dKy2usf5Gw7QiJ/ocYHTOOHPdNikxk8jpxNTvMuQymllzu2mYWuTcwqlPeWzUUjpmEjnn3vpgI8YamHk+Tkwtcs7L9bnKGCFlxNBHM4mc6+Pc1aZdK3eimR1Ti5xDOzpltBuCm1UYhGI0zCTynj172nbGZcqUybTZYPSYWuSE+b+1bKqMvY5rumN3wCwi5wYeOlC162TCS7NuL9VjepEzDFOfuaVw4cKGuzHMInLGznM0xmtkb56YG49cGdOLnLDooDbEY1ZPoxWsN4PIOfX65ptvbNfIks9mDmXVIyK3wGSL+pLCTZs2jVPKY1fHDCI/dOiQImztGuvXr6+2CCJyFX2NbWZGZaJBo2B0kbMX11cw5V6E+KS+NioichWmgNJSQtG45ZPiMAJGFzmz3+pDlJmjXhxuTxGRqzD/V9WqVW03CosUxqX6qCtjdJEzCYWWlYa+FUYyCk8RketgtRN9ogFuVzTCxgYji/zs2bN2vTiX0K5du6a2CkREroNDPCZU1G4Yzs2dnZM9MTCyyPXBTDRmpBHsEZFHgUXy9PvMmZKJjh13xqgiZzYfrQQVrWjRorh69araKmiIyKPA3lyf/43OuO3bt6ut7olRRa7fKszy0LNnz1ZbBD0i8hhgyR59yuaSJUsmKCVyUmNEkfPfSF98gk7TsLCnJaOFp4jIY4CJB7///nvbDURjtlF3hSJnHLd2LRS8O8N8baxGq13PO++8gzVr1qitQlRE5M/gxIkTdl5b1kxz12E7o/f0VU74/+4MyzBp10Lr1q2b8iATYkZE/hx+++03uyU1Fi3khhZ3g3vkmRCjXr16ig0bNkxtcT+Ypz59+vS2fxPWUotrKWizISJ/DhSHp6en7YaisWSRkeLa3QmmcdJnfeFmIglffTEi8hfAZZp8+fLZbiwWSvzjjz/UViGxYESil5eX7d+BxqqlwosRkccCZv9kr6HdXNyxFtuC+4JjoONTX1CRKx4saii8GBF5LOnTp4/tBqMxfPL06dNqq+BM5s6da7d5iPsKWH5aiB0i8ljCdXL9dlRaUhVKNBN0tL377ru235zVXhcuXKi2CrFBRB4H6MUtW7asndBZ9/ru3bvqEYIjYf499trab80dZlw+E+KGiDyOHDx4UKmCqhc6HUAidMfi4+ODPHny2P3OTO9k9hzq8UFEHg927Nhhly6KPQyrdrD0kpBwmEY5qsBr165t2DJWzkZEHk+izhVpHTt2lJ4mgWzdulUpbaT/XT08PMSTngBE5Alg0aJFSty0/oZs0qSJ3JDxhA9O/dZRGksQMzGEEH9E5AmE+88zZ85sd2My8QTn7kLsYPYdbhPNkCGD3e9YvXp1pQyxkDBE5A6AO6By5Mhhd4Py79WrV6tHCM+CVU9YtUa/Dk5jOHFwcLB6lJAQROQOYvfu3Ur1Ff2Nyo0Uv/76q3jen8Hx48ej7Q2gNW/eXClGKTgGEbkDOXnypOIk0t+wrHvO8rlGyfzqKJYvXx5tKZKhw4MGDZJ0yg5GRO5gLl26pATI6G9eGje5LFiwwO3zxSUUDsGZkEMrMqkZpzcUvtl/H2cgIncCXC9n1lD9WjqNPdXXX3+t9Phmg9t2ly5diiJFitj9JrTy5cvjwIED6pGCoxGROxFuoihTpoytmKJmXAdmEgczBHcwYwvn3oz7f/PNN+1+hzRp0ii57SXIxbmIyJ0MHUicZ7Igvv4Gp3G7JHdYGdXJxBRavXv3jrY0RitUqJCyhVdwPiLyRGLz5s1KRtGovTqNOdfmzJljGLEzRmDw4MHRlhVpDB5idp1z586pRwvORkSeiHC76tSpU5E/f/5oNz+tUqVKGD9+vNvmLGNIKpMq5syZM9q18eHGVYZNmzapRwuJhYg8CWBKqaFDh0aLlNOMWWLpgaZo7t+/r77LNQkJCcGMGTPw5ZdfPvN6+PDiHnCJ608aRORJSEBAgDJnZbrnmMTBYBrmF2e9L19fX0UkSZ16mA8dFhT09vZGixYtkCtXrmgONRormjC7LX0OUoAwaRGRJzGM2+baMeepHMYz80lUwXCoy7DPYsWKoUePHkotdX9/f0U8LAThTO7cuaNsuDl06JDSYzdu3FjZREIRR/2eNM65K1eurGzekYomroGI3IXg0JdzdkbNPat31yxt2rSoUqUKunbtqtTj3rBhg7LWzNEBi/4xu2ls4YOGowRWJvHz81P2czPV8ZgxY9CsWTMln52+CGRU40OI+c/btWunOBil0IFrISJ3QSg6Vmuhh5oeeQo6JnFFNc6JGWzC+TGzqDBjTb9+/TBixAiMHTsWv/zyi2J07nGdnhtDuE5NcTLdMXfPMTKPaadjOn9Uy507t7K1dsqUKcrDRXBNROQuDntl5jqjKCnErFmzxii4xDBWk2F5YCbHmDdvHg4fPixhqG6AiNyN4ByXASbr1q3D8OHDFdHnzZtXEV9M6+8JMeY4Z2XXUqVKKT39zJkzlWE8EzhIBRn3QkTuxnC3FkNCuSRH4XNba8+ePdGoUSNl6M158ocffqhE2zFVFSPPNOPfHN4zYIUOPSZo4MYaThHoEaegGbDC2m+uvownPB8RuQGh44sbQuh842YZJmbgw+D8+fOKJ5/eck4D+JBgO0VMLz19AYLxEJELgsERkQuCwRGRC4LBEZELgsERkQuCwRGRC4LBEZELgsERkQuCwRGRC4LBEZELgsERkQuCwRGRC4LBEZELgsGxEzmzkTA5AbcsiomJuZdNmDBBydLDnAN67ETO5ABawgAxMTH3MiYOYSLNqHXx7UQeUzVOMTEx9zGm8d64caOqaCt2Im/btq3tYObSZk7t7Nmzi4mJuaixeCZTZDMFGHXLjD+xFnmePHmUwvmnT59W0guJiYm5ngUFBSl177WiknESOXN/MWmfIAiuzZo1a2xpu+MscnctvCcIZuLPP/8UkQuCkRGRC4LBEZELgsERkQuCwRGRC4LBEZELgsERkQuCwRGRC4LBEZELgsERkQuCwRGRC4LBEZELgsERkQuCwRGRC4LBEZELgsERkQuCwRGRC4LBEZELgsERkQuCwRGRC4LBEZELgsERkQuCwUmQyAMCAtQWQRBclTiJXF8LTUQuCO5BnETeqlUrm8hz5swpIhcENyBOIm/Tpo1N5Llz55Y5uSC4AfGek4vIBcE9SJDjTUQuCK6PiFwQDI6IXBAMjohcEAyOiFwQDI6IXBAMjohcEAyOiFwQDI6IXBAMjohcEAyOiFwQDI6IXBAMjohcEAyOiNxoRN7DrbAwhFks/M4j9UXLy4/u497dB+pfVu49iEDEwyfqX1YePXyEJ5HqH+Qhz3cLd+7pX4zC4wjlM2/dfvp5gusgIjcQT8JPYcGgpihWujRKW+yz3E0xwfs0wi3aC903C545S6HNlGOgrK95j0CW/FXRdesF65sRjqMLe6N02c7YcP6x8srjsECsbNsQZUsUR6ESrbH81G3YSz0Sd4O34odGWVC4VGkUK9ASU3f/p5xfcB1E5EYh4j+MbZ0DFb3m4ZTak++c1gFeNX/CvpvsyUMwo10xvJzbC0sObEHf7BmRrfhEnLL05E/uBmPdmLJIy3/btxpizUWe8C6823+FBq3n4FLEDawY3Qyd5/pGEfBjHP9zOL5q0QUHrofj8JQayNuoHw5eF5m7EiJyg3BhdRdkzV4eSwKfLbA7AQvQJGc25MtfACkLVcbUgzeU10N3DEezOiVQqkgmZPygAdaGWF58cACtK7VAva7DMGPWRCzwVpT/XP6ZXAPvZWqIP889VF8RXAERuUHwGVcIuXP2x2GOpyPOYumkPujQsQv6DPwRu87esR5k4cDP9ZHa8u9XYNBWW68cfuYEzl25Bt/fKiHXRzWx6pLlxZs70KpMUXxatwG69WqJ8gXrYOTOM9Y3xMDNvfPgmTklMjaYgDP2U38hiRGRGwT/P5ojZ8422HTd8seDEOxcMxdTB36D1G8lR5/V6rz79in83Do/3rD8+2UtOwiHQq0vaxyYVBzZs9WyijxsJ5p/ng1Vh+5R2hZ1SIesVX7CWet03Y6HF7ah52fpkCx1KYzZdVHm5C6GiNwghO+diry5cmHsjlvqKxb+W4VCuTKg72qqFgia0x65XiuIjkOH48tcH6HC5N3K6xr7J32uiFwZmT8+jo6VaqD+aF+lbduPFZCt5DD8e/k4xnWphXLlyqHubwdx71YAJrfJiFSvF0Sn6f8qxwquhYjcKDwKw/IfS6B0xfb43ccXvr7e6FI8C954+33MPPQAt/5dglp5XsHnbWeDHbjPz5/gnfTZMHlbKLSFrz1jP0b6dJWwNIh/PcSeIS3wSdm2mLN+JXrWLI6vxm3Hw0f3cPVikJKO+8z1G9g1rb5yP2Qr1wd/7T2Ew4fOIezBc5bbhERHRG4owrFzTjdUrloVVatWQcUKFdB3yRGl5fCiAajYuCe8z6uSvrUfYyrWRYcBOy3vsuK/qhO+aToQuy9rIr2AJb1bonKVKqjfYinOq68+5RY2TaqBChWr4Itq1VCt2hfw+HIifK+I482VEJELgsERkQuCwRGRC4LBEZELgsERkQuCwRGRC4LBEZELgsERkQuCwRGRC4LBEZELgsERkQuCwRGRC4LBEZELgsERkQuCwRGRC4LBEZELgsERkQuCwRGRC4LBEZELgsERkQuCwRGRC4LBEZELgsERkQuCwRGRC4LBEZELgsERkQuCwRGRC4LBEZELgsERkQuCwRGRC4LBEZELgsERkQuCwRGRC4LBEZELgsERkQuCwRGRC4LBEZELgsERkQuCwRGRC4LBEZELgsERkQuCwRGRC4LBEZELgsERkQuCwRGRC4LBEZELgsFJkMiDgoLUFkEQXJVVq1bFT+S5cuXC5cuX1RZBEFyVDRs2IF26dHEXeYoUKVCuXDlUq1ZNTCxG8/DwsFlM7WKJY4ULF0by5MnjLnIxMTH3MxG5mJjBLU4iT5kyJSpXrow6dergq6++cjvz9PRE+vTpbdeTKVMm5Vpq164d4/FiCTf+tnrj7x3b+6dWrVoxvi72fON9XqxYsfgN13PmzImzZ8+qLe5JhQoVbNfDH0MQjMiaNWviv4R25swZtcU9EZELZmD16tXmDYYpX7687Xrq1q2rvioIxsLUEW8icsEMiMhF5ILBMbXIK1asKCIXDI+pRV61alURuWB4ROQicsHgiMhF5ILBEZGLyAWDIyIXkQsGx2VFfsfPD0e3ncId9W9nkJQivx/og18HDcTAgQMxaNgiBGoXeu8ydnpPw6ihg5W2gQMHYeK85bihNlt5jCMrRlrbB83GvqCHttev+R3A1lVHcFN9BY/vIvDwUhz4z3LMvWCsX+SNXf5hauMThJ44igMb/JTf+cbJ5Zg2ZjgGKZ87ED/O34b/nliPFNwXlxT5/cAt6JQnPxq2X4br6mvOIKlEHrxnPprWqYr23axi6vVNK3zVfh3OPrY0XtmERjWL4fNGXVWRd0PDL+uh8/STeKS8+wp2DOqIjt91sLb36oW6DUZihe8VS9tjHJ7cH14lh+OkcqyFiEtYNDQ3+m67DVzdgFpZ30Sm1gtwLZKNkTg6YST61ZiMi5a/Dk4pgLRlq6NXf+v3at2iFupNWYkzETxWcFdcTuTXA05heMsaaFmhGfp098Y19XVnkBQifxJ+GtM6FkGjCdtU0ZJADGtSC0uDLN1myCY06dQdk0+oTRYC5k3Ct5Un4z/L/98+/CuqfNsfuy5Z2yjsvdO6ofSIZbj08BH8547Ct9XG4ZTainshWPlzcQzzsfTVFzeiSW8PfJKrFOZvDFaaT874BcMbzQZPd2B2ORT5da3yusL1Nfi2QmNM2Xje0ucL7orLifzBnTs4E+APn5HjMbb9YuXmcxZJIfKbhxejfcmO2KGMmCNx9+olnDsbiNPH9+BCmKV7vbQZzdo0Q48F+yy/bxCCL5zCwr4D8LWlp2eHuntUZfTzPmiRto7Lq1Cx3FCsOx+KfxeMQatniTz4T3iNH40pU0ejYe+ZOI2HCJw10SbygxaRF/ppEcJ1J98+yAOjFmxz6rRJcC4uOyc/NHw4RrZfAmdmkUsKkV/d/QfaFpmKf5W/7sF3VA/UKlsWRUoUxoid4ZanwF50qFsA2T4thXLlSiFX9tQo0HgGTt9nX/oI6/oXx9TVB/BAeb9KhC8GFR6FTQGX8c+C0WhpJ/Ir+HPcU5HXG/4TlgVdxsYRnhiw6B/4z5uOkV8/W+Q7fiyDUfM2wzLYF9wUFxX5A/gOM6bIw0+sRCfLEPivEPUFhQf4e0pR9N9smVdf2YpvOnTAyL/pjbiDdVOqoVr3mQhRxsuWofkvtdBhqa99Tx62Ea09x2FPSBhOLZmI7h6TcE5twsMQeI/4DIO2W2RqEbmn5XddfNZysnM78EPjdug3ZDQmN/lNmQpEF/kNLKhaCT/+usvyOBLcFdcV+dBhGNHOeCKPvH8JC/uUQPluM586Fe8cRps6WfD92muWrn4rmrbvgBE7ripNkdf2Y2iFWmgz7bzy992gRahduyWWHdc86jexqF8rVBq/TvHAh/vMQosqzbFcc6Bf2givcpUw9YTl+GBv1B06FH+c5hMjAj4r6yJH+k/QsfVCxfdxYFZZFJ6wWnkbeew/HbWqtsC8vdctEwvBXXFZke8bNBhDvl1guDk5uRGwB2O7NkWrml7w8vKCZwVPNB40B/suWAbhl9ajQatW+HGL9niLRMDqn1HMozmWneEg/Q5Ozx+Dbs2rK+/1qtMcjTr8jgOBlqE+CQ/EshmtUb1WbaW9dvlGaD9+F67Qyxe4BNUHDsTcf+9bj73lh/6lCiHf17/jluXPozOKIkPBoqhT3/q9KnvWRafV+3FdvG5ujYuKPBLhwcE4H3DVfu7pYJJK5Ap3LmGP90qsXGmxNQegdby4Hwr/gACcv6m78gchOO63D6duPh2k/3f4L+t7V/og2LYorvLwGo5s9lbaV607/HQ+HXENfpbf9UrEU9XeuHQOh/8NUTz9ESFHsWvjWngr57W8d99p3LUeJrgxLut4SwySVOSCkEiIyEXkgsERkYvIBYMjIheRCwZHRC4iFwyOiFxELhgcEbmIXDA4InIRuWBwROQicsHgiMhF5ILBEZGLyAWDIyIXkQsGR0QuIhcMjohcRC4YHBG5iFwwOCJyEblgcETkInLB4IjIReSCwRGRi8gFgyMiF5ELBkdELiIXDI6IXEQuGBwRuYhcMDhRRb5hwwa1xYqIXBDcHG9vb9cS+aM7t7F75XIsX74S2/2CoRUDcgZJIfKrpzbCe/lyeK9Zj/Wb1iv/v8L7KC7duILjx/bguK586INr+/D3P2dwT2oUCQlgxYoVriXykOBgtKjdCA0bVkPFal2x6kCo02pjJ4XI/dZ0Q9NGDeFRKCuyvf0Bqng1RONmc3Eo8AQm96qMRv0WQCl49PgyhjSvCs/x63BTRC4kgOWWjuTtt99W7vOMGTMm9Zw8EnceReKK+tff/RujzYB5uOSkWklJOVy/vLg3+tXogrPq3+TB+c0YWKEJRmw/h4BZbVGv/u84o5YtE4T4wpJXWk+eKVMmbNq0SW2xkqRz8j19qqBjzym4wEJdTiApRe4/uwu6e7THUbv5yBMEbJ6Gr8p+hgIerbDlVNQiZ4IQd/Qiz5w5MzZv3qy2WEkykYcdGIf63zXCvH037GtxOxDXE7mF+0fRqUQKfNDsN4SqLwlCQtB7111guG7hUQSu+E5F8441MGBDkOEcbxoxi/wB9s78Dn1qeaHaFwPw085z6uuCEH9cTuShF/9Fy76dMTvQ+UWxXU3kN/fMQq2mnph1Cgjf2wtVmn2Hf66pjYIQT1wuGGafXwDS1OyEkUOHYPCggZix8ShuO0nvSSlyv8mt0K5EUxxURR7qtxx1SxVDq7H+sDrTb2Jb+xqo1fo3nA4X97oQf1xO5DeuXsG4EUMxcOBAxYwq8ht+O+GzajuuqdcW6rcZk+YuQYjuWp/cOIWZs9aJyIUE4XIiT0ySUuSCkFiIyEXkgsERkYvIBYMjIheRCwZHRC4iFwyOiFxELhgcU4u8QoUKInLB8Jha5OXLlxeRC4ZHRC4iFwyOiFxELhicBIk8KChIbXFPROSCGVi1alX8RJ4zZ06cP39ebXFPKlasaLueevXqqa8KgrFYu3Zt/ETONzVr1gytW7d2S+O1MBWOdj3ZsmVDmzZtFIvpeDExdzUvLy+kTp067iIXExNzH3vppZeU/75Q5N988020N4uJibmPpUiRAuvWrVMVbcVO5BMnTkSVKlXg4eEhJibmhubp6QkfHx9V0VbsRH7v3j3cvHkTt27dEhMTc0MLDQ1FWFiYqmgrdiIXBMF4iMgFwdAA/wd3xem+Cc1rTAAAAABJRU5ErkJggg==;" vertex="1" parent="1">
          <mxGeometry x="-880" y="495" width="130.67" height="180" as="geometry" />
        </mxCell>
        <mxCell id="A5pwChIiv2BdeN_x7Tfh-36" value="" style="shape=image;verticalLabelPosition=bottom;labelBackgroundColor=default;verticalAlign=top;aspect=fixed;imageAspect=0;image=data:image/png,iVBORw0KGgoAAAANSUhEUgAAAPMAAAIPCAYAAACmOeh0AAAAAXNSR0IArs4c6QAAAARnQU1BAACxjwv8YQUAAAAJcEhZcwAADsMAAA7DAcdvqGQAAHCUSURBVHhe7Z0HWBVn1sdN2bT90jebtptNTzbJpvdmEkvsDQv2hiiKXURUVFBBRcSKIthAlKIgCoiiWEBBBQtIr1KkI73D/5szdy4MCMZCufdyfj7n8d55p73c+c/bz+kEhmE0AhYzw2gILGaG0RBYzAyjIbCYGUZDYDEzjIbAYm5LStJw8aQn7O2sYW1tjV1OhxBwLQHVUrKcyozr2L19I7YI+1m7+iO3RkqoowDn3ezF82y02o1L8YXS9obU5MXAjc5h543kolpp6+2UZUbj2EF7bLXeCsdDZ5FWJCXcA+VZsTju6iDek43jAVyMyZRSmLaAxdwm3ILP9mXo+fOnePn//oZOnTpJ9jBe+PeH+H3QNDhfyJD2VVCVcxmTvnlM2u95GDhfl1IUJPoux/vSeR5+pz/84oulFDlV8FzeVzpHZxxJbOq1UYMQFzP0/OItaT+yZ/DpryPhGJQs7fNXVOGiizm6f/UeHqs7Rye8+M6X0DFzBUu6bWAxtzYVKdg0rRv+/lD9Q96UPfmfX7Hbv+FjnxO4HV8/85CY/tybw3AmTSHG2txw6P36quLYR9+DsXeMuL0hlQiyX4j3/086/4v9cOzG7WKO8zLBJ08p9nlJEN+PP36D16RjHv9yIi5lVEp7Nk/uRQf8/KrimIdfeBM//PgjvvvvvxT31+lZTNt2ucnaB9OysJhblVJ4rx+OZ8SHWrBHn8fPg3RgtMgYxsbGWDhrIr5/61npoe+EV7oYIKJAXhWugMeyfvi7mP43dDPYjzJhq//qYXhaOuZnXTvkNKo9l9+8il1LR+CNx6TrCtakmEtiMfvHZxTX/n4iLqQp6vIn1g7CI088gede/hZbTqeJ25qnDC6LFKX/o0//C4vd4xWbb13F7G6K0v4/309FfIViM9N6sJhbkfLk4+j3xiMKQb3wPozs/ZHd6KHOuOSEPz/8u7jPI//ogl2X8qQUBTWZlzD+y5cV6U9/j4Url+PXtxXV78df7wufGw1PWJt6HoN+eUdxzU4v4J13/iN+fuKF28Wc7W+BN5+gkv8Z6NsFS1uJYoRcDkFoZBQyCsqlbc2Rjw1634jXePqtL3A+V9os4L1wqLj9pc+74fJ9tMGZe4PF3IoE756Bx0VRdcKvBs5oThYRRzdj9XprBFxJRWnlbT1diPVYgrcbV9Mfex7T7UKkPeqpiXLF/1H6k29gzoZD2LNCS9z/iRf63ibmCzaD8DSd9+FvYOefg4K0cPh6e+H0pThpj7uhCifXj8HfhGs8+uI72HaxVNqeiTVDPhOv/dGgdchsvu+NaSFYzK1GFRznf6wQ3t/ewAZBLPdNTR5sJ/6Ch+hcoj2KT0daILWJqmtFlDsGj9bFpiNh4vfjFv2aEXMVjuh3w5N0vle/wyTDqej68YvS/b6OLqOM4BdzS9r3zlRkXcaSQV/iMeG+Xv2qF2bOng394V3xypNC9f2rftgf+gB5Z+4aFnOrkYuNo18TxfHwk93gHiUvl2sQuGo2fv7yS3zZyFbuPyft05C8i1vwkShkwf7+Lxh6JEopDakpL0B+ubIYrMYhM0V79nYxl+HgsN/xBJ1PaB/TPo898zL+8+brim2CvdLdANcb1vqbpTDmELS/VLS/6+wfn2OpR5S0B9PasJhbjUJsm/i6+FA/9MTncLkuHzqqgef4rg0ffMnGrj0i7SOjOg9bp/yCR5X7PfQIPh9iiYS/7FSqhkezYi7HQe0/6oT76g+6CEgsQVVVFg4s6omnxO1PY46TooTPTzoD5732sLeXme8FocUsvBaSTkH3t3fx+CMP4/UvumH06NHQ6vIpnn6kE555pzPWHIoVcsy0NizmVuTI8l8U4nv4cSw6Ii9Ja3BcfyCeffhhPCyaYviJbPLGo9I+9cS6G+LNhxXpdfbYS9Czvyzt0Rx3EnMlDk3vIon5BczeIWt/3ziGPo8p7umTmfbCnsB1h16yar5k30/CtYJiuM7/Sfz+1Mtd4RQtDWWVRcK413/F7U9/PhKXZB1jTOvAYm5F4g6Z4FXxwX8IHw0xQ4qseCrNTkdCfDxupKYj0nMFXpHGdhuLuSbjIoZ984KY9tCTn2OW0SJ8829Fb/aTb/WBV9ydiuc7iRk4b62FZ8SOtdewdH99dbgmMwA6TzwsHvevcVvFjrtwh57i9wb24xQEJUXA6PdHxe/vjrBBieIUIiHmuniJ9nv9C6y/xt3ZrQ2LuRWpyruEKV8ohNjpoWfQffYGXElu+FBXZERg31JtPPu4QiAT13lKKUQ5Di3pKZWej+CXqTtARx9f1lfRcSXYt7rWyGu2DntnMWf7r8PrT9J5HoXWah9pq0DyMQyQSuavFx4AtcAzr+yC0ZyZmDlTZtsO4UbGNcz7VXEvb/Qwg3we2wnjkYqe9de/hPVVFnNrw2JuZa4dWIg3nlA87GT/+vh79OzTD/369UOfnt3xzYev4hEpTSwhna9KRwIZZ63xybOKtP97rS+OJipK4er0EIz9+h/i9ocefxsmnrHi9tu5s5hReh3Tvn9eTH/yzZ7YH5SKwsJcHDYbIk1KeQ0rvRKknZuhJhubJv9PPMejj7+FufbnUVBYiNRgRwz6WPEie/6LMQi+fXI508KwmFudYnhtmoZ3n5cmjzRj/3j3Byy29UNBpdQTXRqBuT8pesM7PfIcZtrLJ3UAUYeN8M4jimNf/HYcLmRUSSlyBDGv7CPu8/jzfW4Xs0DCUUt89bzUZn/iOfzjHy/UvVy+GWeJVOWw8R3IuuKM3u88qThHp8eFc/wDzz8pnfPx1zHHIUQs3ZnWhcXcRsT4OcFwyij88NHreFKaAPLw31/Gl78NwgzTrQhosOqpCD4rhuFhSVTvDrJAcmOt1mZj24TvJQF1wg/6Drh9NLcabibdFfs82R3eSbeLmYg+YYOxvb5VTCAR9n32ne8x0cga4bl3L8GUS26YPaI33vqHoq3dqdNT+KzLEKx2CWjQjmZaDxZzG5N1IxqXL/rD398fF69E4GZeUx1Y5Ui8GoRTZ2i/ACSkNy2HyltJOC+cx9//NE5fihbqAI2pRW5KuHitc4HhuFU3/twExZkICwmEf0AgwhOzpI33SG0JEiJDEEDXC76GtIKmagtMa8FiZhgNgcXMMBoCi5lhNAQWM8NoCCxmDaK2thbV1dWoqqpCRUUFSkpKRCsvL0dlZaW4vaaGx3s1FRazmlFYWIjExEQEBwfDzc0NlpaWmD17NoYPH45u3brhm2++wQcffIA333wTb7zxhmj/+c9/8M477+Czzz7DL7/8ggEDBkBXVxcmJibYtWsXzpw5g8jISGRmZrLY1RgWs4pD4qWhJRsbG3EKZffu3UWhKseXW8qee+458UUwatQomJmZwd3dHQkJfzH7i1EpWMwqBlWVs7Ky4OTkhEmTJokCoxlVTQmwOXvooYeatab2b8r+9re/iSV87969sXr1aly5cgVlZeSBjFFVWMwqQnJyMg4ePIgxY8bg9ddfx6OPKlYi3a2RUB955BHxOBLiY489hscff7zOaBsZ7UPLLu9F2GT/93//J1bRqVp/+fJl8aXDqBYs5nYmMDAQBgYG+PTTT5sUkSoaVcm1tbXh4OCAgoICKSdMe8NibgdKS0tx/PhxDB48GC+99FKTgnniiSfEUlT5Xf65LYxKceVnuhcqzeXpZLSNOtXWrl2LlJQUKXdMe8FibkNo2MjT0xO9evVqUhxk3377LRYuXIi9e/c26Oii3ueNGzfCysqqVW39+vViG5l6v5XXpo63HTt2oE+fPnjllVfqtsvt3XffxYoVK7jTrB1hMbcRvr6+0NLSarKt+uKLL0JHR0fsQc7NVfjXoXHi//5X4XaHbOvWreL2tqC4uFi8J7ouvXR27twppQAXL17EypUrxRJZeW9y+/jjj8V29a1bd+fZk2k5WMytDI3f6unp4ZlnGnmuFOytt97C4sWLcf369ds6lOj7jz/+WLcvjSO3FceOHaurOTz11FM4evR2v2Q0Jk097l27dsWTTyrXMtfbF198gUOHDokTVZi2gcXcStDMq23btomCbfygU4lramoq9mDfCSMjo7pjaOJHTk7b+J+eO3du3XXfe++9utpCc9Dklb59FR5N5Ebt/JEjR4ovNKb1YTG3AlTS9u/f/7aHm9qbJNC4uLuLGHHixIm6Y2l4iUTT2lAV+6uvvqq7Lk0iuRuoWeDh4YGfflJ46pQbtb+3b9/Os8taGRZzC0IPK7VtaQql/GEmIZIv6atX6/173Q15eXl4//33685DpV9rV1up403ek71v3z4p5e6gGWubNm3Cv//977pzkFFfwYQJE3Dz5k1pT6alYTG3EFQFnj59eoMHmIw6iqhteb/Q1ErluahteuRIE07yWwhqGvz8889116POrL+qYjdHeHi42KmnPJfSKGqHj4/MEyjTYrCYWwBa9PDHH380eGipA2natGkPPP6alJQkDvsoz0tia62JGubm5g2GzKjN/6DQQo4PP/yw7pxkzz77bJv2zncUWMwPiLe3t9g5JX9Y6fvu3bulPR4ceelMNnXq1BZvf1JpSZNDlNf4+uuvkZEh94J9/8THx4srteR5oGo3jadTbYBpGVjMD4Cjo+NtiyB+++03hIUp4jO1FDQM1KVLl7prUC/x0qVLW0zQly5datA2J1HT5JaWpKioCIsWLcLf/66IRa006u1uqZdGR4fFfJ/QksTG46u0SKK1ho+ioqIaDHNRyTZnzhyxF/lBoLHgxjULGjZrLQ4cOCAuJJFfr0ePHn85TMf8NSzm+4B6a6mHWvkw0udly5Y9sLD+ChJC48knQ4cOFdc73yvUq0zTL59++ukG56NOq9Ze6kj327gdTSuybty4Ie3B3A8s5nvE2tq6QduSxGBrayultj401ty4JKUOJfI2Qh5D/uqFQh1qW7ZsEXuV5ecgo7Z4W62Cot5uWqstv/73338v3h9zf7CY7wE7O7sGJTKVkvc6DtsSnD9/XuygkguBjET93XffYf78+di8ebO4Ppo66GhuNZXC1AnVuIpLRmuVaVppW0+9jImJwQ8//NDgXsj1UXZ2trQHcy+wmO8SFxcXUSzKh47W9Lq6ukqpbQ8NedFqpuaWUN6tkXhI8O0F9XRTiSy/J1orTctEmXuDxXwX+Pn51a0iIqMeWerJVgWolB4/fvw9uRYiLyS0iGPPnj0q4VyABE1LP+X3uGDBAimVuVtYzH9BbGxsg0kbNCxEVVhVgoao0tLSRHEOGzZMLOk++eQTsW392muvicNONN+ahreoo46WMdJQkSpBw3l0z/K/M3U0MncPi/kO0APfeMEErShSB6jdSZ1M5K+Lhn3Id7aqExQU1GBONzVlvLy8pFTmr2Ax3wH5EkQyci7AM5ZaF5p7Lp9YQkNYPAZ9d7CYm4F6guV+t6hNx36u2obly5fX/d3JRowYoRY1i/aGxdwENNYpb79R5xdVAZm2gWo/gwYNqvv70+IP8k/G3BkWcxOMGzeu7kEiIyd3TNtCs8HkPtBofJz6AJjmYTE3gjpc5IvzqYrHkRzaB1oHLp9tN3DgQPYpdgdYzDIoLIy8ek3DOrTA4X6paSbqA0VkJNdCtOyQxrBTU1OlFNWHevhplRVNNKEx7rvxwllTWYaCvDzRc0rerQKUlZeioqpaSm0eck08ZcqUut+DTFXG91URFrOMxh0v9zvOWZx0HKMXbERgesN50vRw2tvbi4sKaJIH9drS3O5XX30VY8eOxYULF6Q9VY/8/HysWrVKfNk9//zzotdOmhFHY9nU63+nRRK5wUdgoKUljgYMH9oXn33wJUwOR0upd4b6L+RumD766CNeMtkMLGYJKoGpJFY+NJ07d76P6nUBzm7ZiHFdf8Bzv0/D+cz60ofORdMvledvyl5++WVx2qiqQYKiaZ9N3bPS/ve//4keV5qktgbVQvW4ukY4l5c5+v8+HWeT7/5vS44e5P7GyVkDczssZgm50KjUoervvVJbmwBni704tmsLtAxMcSK5vmSmhfnK88uvI28TktFECfLKqSpQidyzZ88G90hDdlSrkPctkJGg7xjRojgBS2f+iTXH7y3qBQ1LkX9u5XX+9a9/iTGqmYawmAWol5SqjsqHhbxf3F+UQ6kkzjsN7ZkL4SuJmdbvykVLrmcp1Axd99y5c6IjQBK2Mp1qBaqy0ICaGsr7IqMmgrOzs1iToQkeFPJVnk5zqpv728X5bMPoCRtwP/45yRG/fMUaz92+HRazAK3jVT4k1A584LZrsg+GzlwkiLlS/EqO/ZTnp6p0SEiIuF2OiYlJ3T7kwYSiSrQ31FFHSyqV90Vzvhu3V8nPtnzKKw0nNd1+LscBC23Mcro/l0p0L9TmVl6Hhqo4rlVDOryYqXSUB0Mj384PjCRmv7RqsZT69ddf684/efJkaaeGkADkboEoXlN7Q8766eWjvCcKHtcU1CuvLDVpRdapU6ekFBm3LmNBL10cjb//YT46r7yGs2TJEimFITq8mOVtWWoHtkiPctJh9NSZDd+0WnFYRr68z8LCQtqpITTEIxc9Oexrb6hDS7m0kmZhkSeTpiDn/vJ11U0tjii9bI/vu5kj7AGmttPqMPnMMKoFqNOwXmvTocVMywZpqEP5cNCi+PtrKzeiKBnHAy4gjR7c2poGIqW1x01BiwnkK4ZUYfoiVWNp2Ex5T+RuqClIvFQi0z5UcjYl+rKboTh84TpKHtChqHxSD/VwU9gbRkGHFrN8yOPRRx9tteV2s2bNqhME9VYfPnxYSlFAJY48WBu58WmyqtrG0Lg4dXgp74tefI2DwNFEG3lvN/Vot2ZpSeFv5C9HGjJjryQKOqyY6UGVd9yQLyoahmkNaE2xvLecFm5QQHPqoaXVWVRaK9PISByq8oCS/zD5vVG4HWo7Uwedg4NDgyEjMppA0tps2LChLvIGtdXJ2QLTgcVM0ynlbmvJ4V1rQp01ymspTVk1lRt1xqnSw0mTXZoK19p4fJyMhtTawhkfeX+hsWbldQ0NDaWUjk2HFfOaNWvqHgYqKVt7RQ5NfCCn9fLx5MZGsZApLKqqQeu4+/Tp0+Q9K41K6AeZx36v0FwA5bWpas+LYTqomGnljTzQG1Vr2wpqL9N4KQ1D0XgyjWuTD2uaOBIdfXfzldsDWmBBgeSojUq1ByqZqaebSmOq1dzNgouWhDyjKn8/ekH6+vpKKR2XDinma9euNRg/ba6XtrWg9joJlxwe0PCPOg2vUAcUOd8LDAwUh6RoJVR7kJ6e3qD3n4YYOzodUswUTlT5EFAJQ+1nRr2gFyIFsFf+jlTN7+j+2TqcmGkcmWZ5KR+C33//XSxtNJ2WDgGrClCvuvJ3pJoW1RQ6Mh1OzDS3WB7jqC2GUtqT8pworJozUmynT5hhi4hCzfHUQU4SXnjhhbrfcv/+/VJKx6TDiZkWOdCkDPrxaaxSFdcPtxzlcLWYjT4LXMW2rdsSU8xbchKtG6uy7aA8yWNVUYytjkyHEzO9vZU/Pq28uXLlipSiiZTjoJUhhq84Kg7dHF+7DotN/DRGzITc+eKff/7ZoYeoOpyYaR2s8sent7qmt5fTw0OwYuIkcYHCUMMdOBehWfmlhSvK35NezjS9tKPSocTceAonxWXSaCrSYWMwGot2RYjTQwMdVkJr4Xoka1Cnr6enZ91EHFqA0dRa8Y5ChxIzDV3IfTEbGxtLKRpKwXWsmNIZe5VrI5L2outMbZxMl75rADRer1yPTotm2iNetqrQocRM0xKVCx7IjxWtmtJsSuC9YTFGTNuIQ4cOwVhnNPTWH0epBo1SURv5gw8+qHtBt/Yce1WmQ4mZ/Dwrg5LR//fjtE/9KMGZAxvEWojFdifktcBybVVDPjV30qRJ0taOR4cS84EDB+oWttP4pCrPhb5faHIILU/U09MT1/3+/EtnjBwzXnTCV15aLO2lWYwZM6ZOzL169ZK2djw6lJitra3rnBGQB422XhzQ2ty8eVNcG93U0koyCrquiquyHhQaX1bmkRwQtoi3GDWkQ4mZ2lPKH53aWZoUJjQnJwddunSpy19zRp5O3N3dpaM0A/nw1Keffiqu8OqIdCgxGxgY1P3o5DaW3Le2JOQzi6ry69atE2sB5PqnrVYVNQ4MT0ssyRMobadlivJY0xRSJj4+Xjqy9aFVYeRjm6Jpkr9waga05Hgw+QFT5o1e0rSiqiPSocQs949NpVhLRRQkx4Dkw+uf//xn3fmVRi8NEnhrQsKkCRPKa1JVU+6ri15a9IKRV79NTU2l1NaDSkiK3/X222/XXVdp5FCAVq+1xAIQGo5Snpeu1VH9aXcoMU+cOLHuR6dIDDSJ5EEhIf322291523KyE9Va8ZHIl9cypKXHB405y5YPmGGpj5WVLTexE7qj6BwuMrrNWdUW3rQ38HNza3ufFTraEuPJ6pEhxKzfB5vv379HrhUoDY3xQxWnpOMPIeQF0sKQSMPdkZiox7l1oBeFMrrUIlXUFAgpTSEqrjK/WjlWGtNfaQOKH19/bprkdEsrQ8//FDshCNPqPK05nyJ3y3Uqac8F0WM7KhB2VnMDwC5AFKej4yq7uS+hqZOUrtt8+bNDTyafP31163i8E7uz4z8iDXXS08hWZX7UfU/NzdXSmlZaDxfXqWnfJPgqNpN16QYy/SyU6aTcz6KnnG/sJgVdCgx04QC5Y9Ofr8epHpHpY98fJM6XmiGWWPIb5ZybJuWXLZGDCma3aUUD5V6e/fulVLqoamsJGDl/VKNorUcFsiHiqgfoSlPLhTpUjmnmmow9He6X6hPQnk9qmZr4vyBu6FDiZmc5il/dPIw8iAdYNTe/OKLL+rON2/ePCmlIZmZmQ2iZlCPbktDpT0FQVdegwTk5OQkVqOpNIyIiLjNN7etra10dMsjjwxJXjSbgqZhyvsaZs+eLaXcO/TyUp7n3XffFeNJd0Q6lJjlyx+p6nfnDqAaXHBfKop0qbkPGldIqb1MbUDl+Zrr4KISUR5J0dzcXEppWeTDM2TURv/xxx/FGog8xAwZzQxrzSGz7t27112L4l43BfWwy+NG0UjD7RTAaftqGAi/wcod7shqZiRR7tONFtLQC7Qj0qHETEJS/uj0Bm9+IXsVTttNwKAZs8WeUgvD+TDYfU7YWg+V6vJoDgMGDJBSGkIO7eXtZnt7eymlZSFx0BRO5XWas88//1wsqVsTuaM9WjPeVA2Ixp7pN1DuRyFtG1INP1t9DBszHweF32DjjAnY6XiuSccK8g5Ayl9HdVDQocRMpZeyh5kE1nxnVD6OLTeA52VFr3BluBcWdF+Jxl00NIaqfIho4YaNjY2UooCmV9JcYeU+tGKrNTtnSDQUHF1erVcazUUfMmRIm7QnqQqvvC79vSmah7x/ghxCyIcJyUMqhYWVU5F8AvoT/4S7rJAtLy5DUxM1qYquPNdPP/0kbe14dCgxU++zsqOIpjXerYvdU7snY/TSA0KlryFUwsl9N1OHzvDhw8WhFgrJ+tVXX9WlkVHQ9ZaeddYUFOuZ2pE0MWThwoVibCZ/f38ptfWhl6S8P4GMxripZkT3JF/lREYjC43d5Gad34/VQw3husMaepMnY+XOw2hu8i39zZXnaq6G1BHoUGImLxTKJZA0uaJxaXA71QhxnIM+fafiRG7TIqRhluYWNsiN5gy35RTK9ob+tvJYXs0ZvQyb8g5ScPUARr8xAOa2J+B38iTW6fWF8dYjKGuiaKbSWHk+Gt/uqHQoMVPHiDIoOA0T3Xk4pBxBrkYYNnI2fCPvXJpSKSgvoRsb9ZxrtuPApqGaUFNVfqVRe7q5AO55IQdhPtYQN6TvJRcW4/sF85HQyOURVdnl00UfdAKKOtOhxEw90PLqH00lbJoaXHCehh8Gj8exyGyUFt1CfkERqu+wsi40NFTsxKEqJI05U0lM1T/yZtLcjKyOAM2Tpskq1KtOvf8ff/yxOMZNbfs7zUCrLo7GxvmzsPpApLgizGv5EIxfboeCRlMDyPG9ck48tc+pw7Kj0qHETJMktLW168RM7bgmqc2EzZS++KnHQIwZOUzsOJq+1Appd9HcpXFdekjpAWyL9rG6QG1i+rtQe/pue5sL0iIxX3+S+PefumANbuTf3mqmAHI0951+T+pI66izv4gOJWZC3gNN0Rf/an4yvQAU1jEXvKsCd5qpRrUh5e9JQ13tFchOFehwYqapj8ofn0KSUjRDRn0hd8nK35Oq7x25NtThxExtWwqurnwANN9Dp+ZC4/jyPpDbJ550LDqcmKkaRp43lA8ADWV0VJ9R6s7Zs2frFmvQ6IQm+je7FzqcmAn5ggtqN3fkdpY6Y2VlVfc7vvnmmx12tZSSDilmGhdWLpCn/2n+NKNeUNtY7jmFZpG1pucUdaBDiplmYtEiduWDQD3cjHpBv6E8NnNrrUZTJzqkmAm5ux9aKtgS/sCYtoMWtSh/P3LVxLWrDixmOzu7uoeBgq9TZ0p7QCUMzWJSt3nb5BqJPIBeu3ZN9E7altC4s3w1Gr+MFXRYMScnJzdYtD9nzhwppfWhGVA7duwQPWTSFEfygUX/0wNKQ2Wq3LtOw0EUTOCXX34R50TTnHSaukoeRY4fPy7t1brQwgx5FXvt2rVSSsemw4qZBDNhwoS6B4IWBLRFCUMzzgYPHiwOpSivLTfyEELCUEVvGbRY5Ntvv23yvsmohkNCb+1SkpaXKq9JK7M6ei+2kg4rZkK+vpmstSeQ0BAYrbdVXu9ORoJvvMa3PYmJiWkQ2/pO1porl+glRzUB5bVoMQvPgVfQocVMLmmpvaV8MGjFE7UFWwu532oyeihpG3mqJEd/jZcLtqbTvXuBajHyBSpktAqK1nKTt1HyrUZTY5VpTz/9dKt1SNELV+kthoYVO/IqqcZ0aDETJCLlw0H/e3l5SSn3SXES9jvYw2FfEIpkTV8qlamdqXzgyaFgYy+S5Lnks88+q9uHXOOqwtjp5cuXG0yBJZc/jV965IxAGciebMaMGVJKE5TnwdvdWfSHZu/giJDku1siSjWVn3/+ue4a9CLmCT/1dHgxU7WNHMcrH5AePXrcd7WtJjMUS6bqQ3v2Eswbow8Dh/NQVpSpx1rpeYPaxbt27ZJSGkK97MpQMzTkogqhVqg0VP59qARuzt2Sjo5O3X7kkbQ5V8bpp5di7Ax9cZ3zypXm8I3MkVLuDLkPVp6fXrxbtmyRUhiiw4uZkC+LpLWxFLHwfkg7a4a+S6QHrPgEBveYj2uFiq/kg0t5DRIpRX1oCooTRS6NaD+qrt7PkBlViylCBIVupfFYFxcXsZPofv2EU9A55b2TSJvrnCOHA8r9yAlBfn6+lCKnFv42i+HgdlL0VXa3vQLFxcUNmkTU+9/0+TsuLGYB6sWWzwijMDP34661uqocVahGVOBhLJs6HtNsA6A8y6VLl+oW0dP/zS0KoDagcqopleT36m6IRKyrq9ugWkxGvs+ol/x+2rLyCRr0dyIRNoU8kkXzLm9zYac/GIN/GIBx40Zj/KSFQjX7r0VJQ3nKGgsZl8q3w2KWsLS0rHtQSEwP0rN9PcAda1eZw8bYEmEZioX19MKQ98JqaWnd1ltNJQ1V85X7UOlzL4HDSah38rlF9sorr9xzzeP06dN1jhDJmnL4T+19efwoigDZNOWIOuWFqHRFLeGylQEGTXTGnVq+FJ9K/rejfoXWipOlzrCYJWgyhPyBoWrivT4wBRmxyCisF9/WhV9hskeM+JmqvhQdQ3l+avPRAx8QEIDY2FjRSQItFlCmk93L+lwKVNfYtS+VztQfIHfCT0aTZWjm1t1CVVy5e1yqWZAL37CwMHHIimoT8o47KkE9PT2loxtRlo/U4vrqflnCaYwbZItU6XtTkN9t5bnJWiuQgLrDYpaxc+fOBg/NrFmzpJS7I/7wYgyeYgcxBmNxFCZN6IfVF+qj+CcmJopLLuXXoAefOpWUPepKo5fJvUSMXLZsWYPjafz13LlzYm8v9UZT0Dx5NXXy5Ml3dMfTmFOnToltffk1yOeWfCaW0ijaZrMTR3KDMGGIFhyCFT3YFzfMw7QtZxtEC5FDs73Ix7ny3BRFhDxyMrfDYpZBbTz5nF9a+N6cK9gmKc/F7mWG6Dl8FEb0Gg1j20sobjQzk9rAjR3ENzYKAkdCvFuo5KQ2qvJ4GgNuPHRENQN58DiqEt9rGFUqEZWeMJszmhRz59lrlUg4ugXT+g7BqFHamDjVBEnZTbu3pyaGvNlBE3zopcI0DYu5EdTupF5k5QNEvp0zMjKk1Lug5hZiIiMQGZ2K5so9Gl+mQGlUBVb2XNOLg77T+Oy9RjGkoSJqCyvvmTxWNgVV6ZUz3uh/iiV9r1BzoG/fvuJ8cgpVSzUKKrEpyDvNkb7bcfHcG3FCOzsS6aXN1w5oDoAyT2Rz586VUpimYDE3gXyoiuxeq9t3C4mWerUdHBzEqaX3G4qUhrOUzv3JmgtFQ/7P5BM77ncIjqA2N700yNEDvRRaevIG1UzktQCqrdxLs6MjwmJuAupllscOprahs7OzlKp60EtAHlFj9erVUkpDaNKFst1M7dB7qcq3JdSZJ2820AIO8qrK3BkWczM0Lu2oWhkUFCSlqh7ymMg0FkxVajnU6/zNN9/U7UOfyVG/qkETW6hzTnmfZNRzzvw1LOY7sGfPnroJHGQ09NPWC/HvFqryygVALx8SAYWxpSWD1DsuT1fVNcC04kre605xunim193BYv4LqKNKLoKhQ4eq5JI7KtFo+El+r80Z5eF+Zri1NvTylC9Jff/99+867C7DYv5LqNOFxjblYpg5c6ZKCpoC1NHLh9r48vuVGw1P/VVInvaAOgDlY9bUpm8rzyWaAov5LqBIho0nexgZGUmpqgVNBKE1xrSCiYaLXnvtNdGpwOjRo7F///77XmzRmtDYsbznmoa7tm7dKqUydwuL+S6hmUgUmEwuaJpmeC+zqNoSui+qVVAbn0piVRQxQfO+//Of/zT4uxoaGkqpzL3AYr4HaNkidSwpHzoqQaiTSVWFourQ+HRjIVMzgeJoM/cOi/keIRc/r7/+eoMHkDx7sqvXe+PgwYMNXA2RUdOgNd02aTos5vuA2qTUFpU/iKNGjbq3aZ9tTgXSE0KRqQI+Ardt2yZOBJH//WhsWZUcGKojLOb7hKrccndDZOSFg5wQqCIZ/uvRuevPcIuVNrQDNG+bVnfJh5/IKBInl8gPDov5AaBOscYroKgK3txCh3ajIBpbDMejS//u8EyUtrUxNANNHhidjCaH0IQWdpXbMrCYHxByuEduhuQPKa2EohU+qjGeW47DLnbYvncnVi0YCvfYto+W4e3tLXpNkf+NyGECLTBhWg4WcwtA63ep86axgwFyC9teMayU5F4NwPqN/kguicRGw0Hwur+FWfcFvczIu4rSK6nSyCtJ47njzIPDYm4hqDebnNY37qGlJYc0fNUuixpKbmD3zC6wsPFFoN8OTBz8E1b6xKO4lTveyRECrXKiteDyvwXZkCFD7tkpAnN3sJhbGPJM8tNPP932EFOMJlr726ZDWGVJ2DdHD7p6k6Ezsi+++O/r6GLihORWHMYl/+BNzREnf2QbNmzo8AHRWxMWcytAjgCNjY1vmyNNweLILRFNlqDSq02pjMS6hdo40UqLvmhNNXVmyddVK42iXd6T+yXmvmAxtyJ+fn4NfFgpjdzWUmA4msrYZquXaipQcCsbpS08WY3mrVPkR7mbXaXRbDlylMDjx20Di7mVoQeZJkk0FUGRhmYGDRqEffv2iUHs1AnyBUZzqN96663b8kUvq7Fjx4queJm2g8XcRpCbXaqGNvZhrTRalUULN8hPl6rOTaZOPIr8SA79mvLSSQ7++vfvj5MnT0pHMG0Ji7mNockTBgYGTVZLyahUo6q5tbU1goOD291HNPU8k+M/WgBB9yz3AiK/5z59+ojOCXkCSPvBYm4nSNQU5qXxOmm5kQtbcoxAMZxoLXJkZKR0dOtBY8O0mGTNmjVibKrGU1blRsNu5Ozg6NGj0tFMe8JibmfIEyVN/yTn8Y3HqOVGVVjqKSZHfGPGjBE7lijKI1XLac0yVYGpFKcONVqSKV9nTT3nNCRGw0LkMJ/a57QohEpdcgxAfsJmz54tOgX84IMPbotcITea3UaeM+lFRNdmVAcWs4pAgqOSl2IWk6gar8pqymjGGYmc3O2QX2lyD0wvBVrBRTPS9PT0xOoxrUiikDE0YYOGieiFQB48aeiMhsuaOrfcaGEEBYefNm2aGEOKe6dVExazCkLCpvhQFMaUJmCQUBtPFW1tow4uagfTsJOPj49K+g1jGsJiVnFI2DT3WyluWi5IJTC5MKKecep8ul+hU4lL7V4qpWn1l7a2tlgzIEd6NAmES2D1gsWsppAnTpo66eXlBTs7O5ibm4u95FSlpjFeEiZVq2lyCrnWVVa9KZYVDZFt3LhRjNJBCx5SUlLafkYa0+KwmBlGQ2AxM4yGwGJmGA2BxcwwGgKLmWE0BBYzw2gILGaG0RBYzAyjIbCYGUZDYDEzjIbAYmYYDYHFzDAaAouZYTSEBmKmSPvknoaW2u3evZuNjU3FjKKmUGzrpmgg5ujoaHGdbFNrX9nY2FTDyFtMUzQQc3x8vOgDqqkTsLGxqYYNHDhQUmxDbhNzU87a2djYVMcocEJT3FHM69atEz0wsrGxta9paWk9mJjJJQ3DMO0PeVl9IDE312vGMEzbIg+Ty2JmGDWGxcwwGgKLmWE0BBYzw2gILGaG0RBYzAyjIbCYGUZDYDEzjIbAYmYYDYHFzDAaAouZYTQEFjPDaAgsZobREFjMDKMhsJgZRkNgMTOMhsBiZhgNgcXMMBoCi5lhNAQWM8NoCCxmhtEQWMwMoyGwmBlGQ2AxM4yGwGJmGA2BxcwwGgKLmWE0BBYzw2gILGaG0RBYzAyjIbCYGUZDYDEzjIbAYtYgSooLUVBQIFqttA015SjIyEZxVY20AagoLURWVhGqpO9EWWExKmrqjhIoVZxLvlMjyqVrlVRLG5h2hcWsEeQj3HMV3vrnE+Jv8tCjT2P06oNIKhOSimKw8Kv38Fb3WUisAKpS/dD74xfx/eDdyKZDawvhuXY6vvxkCDwSS2kLakvisXnWh3io00N4sqsOzmcottdThQS3tfju6b8J13sE7w5biquFlVIa016wmDWAUI+FePmxR9B11GwYGxtj1vDvhd/mYQy08AcVmjG+K/D63x9GfytnbB33KTq9+hXc4/KAgmhYGfRBp8cexZOv98CBOBJkFXxN++D5x76DodkidHvjOfw8zxXCe6CeimjMeP9f+Pfv42G2chref/QF/Gl8WrwW036wmNWdyjQs6vM8vhhiDkGeEvnYv3ECDgffkr6XwMtwAJ547lm88PfXoL8jVNxaE38ERhvWYu/mxfj6jR7YnyhUs2vTMbXrf/Gb3gEUVBQh/FIwLseko76SLlATgSk/fImuS4+hojgIWv/5DMPNTjfch2lzWMzqTkEgRr33L+htui5+LcuKxPFDB+Hh7oLjF8NRqGzz3jiID5/shCc+0cK1cmlbjSKx5MxmfPVqN+xPFr5UXse4P17FF19+If6+D3+mBeeoIlQXxsL3sBOcnDxwObYEEa7j8Yj0DDz1Vh8EFYunYtoRFrO6UxYF/R8ewZ9zncWvRYEW+PgJxW/z7K/jcZ3azSjH3qU98BT9Zo+/jBl7AsV9lWQfs8SXgpj3JQlfahIx5o838eiv42C3Ywcmf/pvvPmjGYKDLPHps3TeZzFxpj109b/BFxNMsGPHGvR59T3MsQxp0KHGtD0sZrWnAu6reuOxJ9/CugOBCAv2h6ebK/S7v4YXOk9HqrDHrZMr8NajT0J7jQOsjXrhqWd/g1NMfYdVnZgTSI4l2DLuO7wyygrZ2dlwmfo9Xn97JIKzc5EYE47w8Fik+tvh5ZeewS8b/YV9rkLv/57Hf//cgALF6Zh2gsWsCeRdhdW0X+p+E7KP/hiKjU6XUZp2CT3e7YTnv5mNWNJqcQAGvN1JKHmnIaFQcXiW50q8++T32B1TIn7Pj3BAnw8eUpzr729Bb9f5RqVuOuyn9cHfldf712/YfDq+fjiMaRdYzBpDMXwOu2Lfvn2COSNC6g0rz7iOHXsO4FJ0ffdY0nlfuDg640aR4nt5RjSOHz4jfK/vj84I9RHPtf9UeNPV5+ocnHXZL+yzH0dD06WNTHvCYmYYDYHFzDAaAouZYTQEFjPDaAgsZobREFjMqk7tLTiaj8GXn36Md95+G28L9tn3hjibUNZ2Q0FVGdg4pxdGWXpLGxhVhMWs6tRmYcXwt/DQS++jV//+6C/YF/9+Dp/9sRaKAaFqhPs5wt7eHu7eCeKWm5d9cMT7EmiGZVnqVew7cgxR4nTLfFw8chjBsaXCYek46mAPe4f9CM9RvBbSInzgd9wTx318sW/fBdxSvi0qkzCz+/P4SHcNAg84w2HvYSTm18/EvnnlCByE6zvsuwRxpLomCwf3u+LwSZqyAsQdPgz3w4r7YVoPFrOqU5uNFdpv4aPJ26QNgKfBd3jzf7pIFD6HOE7Hvx9X/BadOn2IpXsuwt92HN547xdcFDQbtaOrsP1JzHJJR+XNg/ji9U9g4haE3VO61U36+HaEEVKqgLNr/4enHumERx59Ak91t0CuUsxVKTDW/gDPvfkmXlceM8AWOUJS6vnt+PkV5fX/gYEG+5Bdk4kVw17D398bjWN+dujygvBwLTnGYm5lWMyqjiDmtZO+wCOPP4UXXnwRLwr25LOvYKjlSZRmnMB37z2LXwydEBUVBXeTHnjyAy24nnZFn09/hHlwNI6M/h8ee+hRjBXE5O84CZ92m4RjRzfjizdehoG1C1z2rsAPz70DY88UXLb7EY++8i6WelxCYqFsDXNlMowG/gdPf6eLUxGR8LMei9defAOugSGY1fdNvNx3OcKE6wfvn4O/v/gelpzPA4rOYvJ/X8Gzzz6LzyatRhpPD2t1WMyqjiDmNeM/wbPvfoMR48ZhnGD6Gw6DZmLeOmuM/777HJxjFLsi7gB+++dP2OAfCJMe32DYnOWYNqgfdAYNRK8BOpg66Hv0nXUQId6T8bK0GENhj2LogjPwtvkB//3hd4Q3WLwsIIh5Xp9X0cPEQ/E9yRVfffk+5m/aDK2vH8MCd1qhQURhypsfYZTtVfGby/wPhXM/hYWHFNV/pnVhMas6ymr2FBtpQz3ViUfxyTuvYPCGABQXFyNYqF4/868/cCi5DJfsxuHZx5/FC58Y4cxZJ/T96v/w98ffhvnpQhScW4Y3X30J+qt3Y/fuPdi1cydOXE7DUYsv8f73nXElX7qAEiqZB/wbf/9tPuKLihDnboD/vPJP7D0dgqm93sEHE21xS7h+5rl1eO2ltzHvRDaQfAw/vN0Jf3v0Ibz1uzmSuGRudVjMqk5tJhb1fg4vaa2E0tVAHbVlcFs5EM88JrRzH3kEjzz0Twxb4iq2TUsu7sS7wu/z8EhbVFekQv87cinUFQFUpBeEwvCPT/DPZ1/CSy+9hPd7TcWJzFr4r3gDz7//GS42vlBlEub0/Ac6PfUi3nhK4Zro3e9MkFJTizD3JXj3aeE6wvUf6vQsvh62RhD8Tawa+gqe+WEk/Hyd8Mn/PY4flzqhkF2RtCosZlWntgRnXNZhvds5iEuTb+MWfLYbYd68eTCzOlu3T3VBLBwtjLHjVLT4/arbLqxZ4a3w+yVQkRIMq/nzhOMMsNE7TNwWf3YzrGx24GbjC1Xn47iTFba5ucPVxBjzDS0QKPkLI64dWgsD4frzF7oijQRbcB0Wa0xgF0JXq0XABlOYr9+JjCZXbDAtBYuZYTQEFjPDaAgsZobREFjMDKMhsJgZRkNgMTOMhsBiZhgNgcXMMBoCi5lhNAQWM8NoCCxmhtEQWMwMoyGwmBlGQ2AxM4yGwGJmGA2BxcwwGgKLmWE0BBYzw2gILGaG0RBYzAyjIbCYGUZDYDEzjIbAYmYYDYHFzDAaAouZYTQEFjPDaAgsZobREFjMDKMhsJgZRkNgMTOMhsBiZhgNgcXMMBoCi5lhNAQWM8NoCCxmhtEQWMwMoyGwmBlGQ2AxM4yG8MBi9vLyklIYhmlPpk6d+mBitrKyQnh4OMLCwtjY2NrJrl+/jsGDBz+YmJ9++mn885//xIsvvsjGxtZO9tJLL+GJJ564NzEHBQXh888/x+uvv153IBsbm2rY3/72N/z73//GyJEjJcU2pIGYY2Ji8NFHH+HRRx8VD37ooYfwyCOPiP+rm8n/CPT94Ycfvm0fNjZ1MHp2lc8xCVpLS0tSbEMaiDkhIaFBNXv+/Pk4dOgQ3Nzc1Mr27t2L1157rS4fOjo6cHd3b3JfNjZVN3p2u3XrVvc831eb2cfHR0pRPz788MO6fNjZ2UlbGUY9mTZtWt3zfF9iVtdx5vz8fLz//vt1+di0aZOUwjDqSYedNMJiZjQNFrOUDxYzo+6wmKV8sJgZdYfFLOWDxcyoOyxmKR8sZkbdYTFL+WAxM+oOi1nKB4uZUXdYzFI+WMyMusNilvLBYmbUHRUXcyWKbmWiolb62oK0l5hLMm/g8sXz8Pf3F+3CtShUS2ltQmUusrJTUFJajMSrl3BOug9///NIL5X2EajOiai7x/CMCsXGqjLcykpFSZXiK1FbXoTk5FyUy3+j6nwUFOSjRvraFMW5cSho25xrPCos5mqctBwMnfmLkX6np+I+aR8xV+H4jEno8buQLx0d0UZp9cKmvQEokvZoXSpx6fQWmB5yR3KQF6a88zNGSPehM7Y/ZsxZjbhs4YWTEYiVq4ZgnJg2DgPGT8fhc+lAWTi2L9LC6TTpdALl1z3Qrds6hJZJG6oyYTf9Z8zf6g7pFdAk8afNsHujP8u5BVFJMdemXYSx8Rh8/sUb0Bltggxpe0vSPmIugZfeMjh7JEvfBeLdYDBdC8GCGCqueWHhiNEYPW4iDl7JBfLCYL7MCyn0xJfGwnWpKa7k0EFFCDnjhkvZtUg+txOjRgvHDDeA59USIa0Sl619YLt2AUbPXo2LN+slVZZxHRssNyNQ2K3orCssx+5BsZRGHFjcGevPJ8B/SS9M3Hhc2gpE7pkGnWFrkFJ0AzsXD8QpuZjDDqFLF0uEC/dYfOUAxs0ajK/ffQNLVh8RXl3CK7miCP7OczGS7nGENma6BKJaKMVry3PgsXwVfJPkd8A8CCop5vKYUJy5EogTu01gOmoxZI9+i9FuYp5mioOeN6XvAjeOYd4SPZy6GgTToWOw0+cqrp7aiVkD9bHv3CVsHKYPvzTh6Y/ajY8/+xpbLwoPf3EsdqyxwrHDrli0dg+uJKciJcgb06auR1hJNvb06YZ+C2xxNSIe+eX11ZoQHzuM2nhC/HzzhCvWT9gLZYFKOJoPhFVgIsL2L0DfXjpwOOyFE2fOo5hOUXILpdmh2L646ZL5uqDcoivncDI2DIcMR2ONibPwWgGyruzAHDNTnI9LQur5Hfj91244GkcnrEXsqV3w3XtJPA/z4Kh0mzn1oKlQUi1CivS9JWkfMVcK1ewpGDJgEoyMjEQbO7AvFu25gkC3Wehp4SbtVwt341UwWuEPb89pWOp/E7kn12H6HBNst7iKFKE033DQD+4zdNG372SYmpoKtgj9e3+KbaFxODK2O7a5x0nnUlKLo3smY653tPgtN9AFeh/3wHTpPoymDkH/CZYIE6rZQh0B/utXYvbsSfjmH3/Dj0NnC9XsPFIuti/UwpkGYj6Mbl3X4ZrsrRBoPBImy5wbvCgiTtvD1Hgq+n76LY7EKF4w2WHuiDlkL35mHhyVFnO88zINE3MFfKbPwnT9NXB0dBTN/dgZsW15emc/9Nx5TLGbILyza21gaX4eoYGHYLLSBc7mLji61x7Oduvg5uyA8ymRsJ8wBuOnW8Bpn3Cufc7wPBuCrLI8OA8XxHwgQjqXkiLsX94VW04r/prZAa6Y99MEbJbuw3G/C2KzqQesErfy6nu4sq4HwXnjdIzSn4+LN6LhYDoQAaLgFVRFe6JLD8v6NrPA2UUjYCqImUrmynihba49BENGrsDeA1sx9aff4RWtOH9hWhAyr+0VPzMPjmqL2WkpjIYv1CAxC9XsqSZwkbeZJRL81qLPhJXIFL/lYt0IXSxwjEdlURRsxvyE70zdcTMtDts2D8fQ2a4oF/5dWq2LuUb1ziFuXQlBdmku9mt3hbVrYzFX44jNCJj4xovf0k64YN24Pbd3vFXfhPmk6Zi/95q0QSDDB6MmjcbJuAw4mw3Acq90KQFI2r8I3afbIEfWSXl24XCYLHURPwdvG4K56xwUPdtZnpjx9bfwjlF0fefGeCPRd7f4mXlwVFrMcfsXY/4QQw1qM5fCc/Ii7HS8Ln2XUX4T3oumYcLI6ZiuMwhzF9oisZwSbmLxwE/w0yxXcbf9U7tiyKwdYqmHvAgsGdsbgyYLx0wbhqVz1yE2vxDOQ3/HZpdwcX85AR7rMMT2vPj55glnrBq6Banit4bcvOKOWVN7CKW+cF7B9MeugZun4uUQH+iLueOnQV9Mm4rZOvrwuZAopik5bTgESxY7iR1g6ZftME17OObOmQkTo7Ho/udXMA9QvLJu+DsicNdJ8TPz4Ki0mMtzU4X2Ycodhzjul/YRcw3yk1KRnSsb0JVTU4BgHy94HTuNjLoxm1pkpaTjRgb1VJPmk5Cdlls3hluVdxXHvIVjvHyQKlV1c+KikJl3+zXy432xeJkRrhYKlyrMRXp8luKl0ASVmSE46kXn9cLZS7IOO4GSpFB4S2mhKbekrfUUpsQjLbX+HpMuBYj7ht3IQlZmEmJyioUaQBmCdqyDf6QiX8yDo9Jibk3aR8ztTSG83FZh0cETKGyFiTj3QuolG9gauQt3xLQULGYpHx1DzAL54bh4JQD5zRXJbURm9FHE3mqbqTIdBRazlI8OI2ZGY2ExS/lgMTPqDotZygeLmVF3WMxSPljMjLrDYpbywWJm1B0Ws5QPFjOj7rCYpXywmBl1h8Us5YPFzKg7LGYpHyxmRt1hMUv5YDEz6g6LWcoHi5lRd1jMUj5YzIy6w2KW8sFiZtQdFrOUDxYzo+6wmKV8sJgZdYfFLOWDxcyoOyxmKR8sZkbdYTFL+WAxM+oOi1nKB4uZUXdYzFI+WMyMusNilvLBYmbUHdUVc0UJcrKzkScPBtyCtJeYa6vLUZCfi2whb2R5hc340G41qlFVUYrq2lqUFxcgV7qP7Jw80Wl9HdXF4t8/OzsHxUof3rU1qK6uQo3cTa+wrbKyGrd57q2RDqL06tvTqytL7hi/mbl3VFLM5WlhsB07AgO1tNBddzZOJohxTFuU9hFzNfyXzUav33tBS8ib0g6cTWrWGX3LUoOEy/awPOSMpMunMOeLX9FPeR8DumPxOmfkFlNM9RTs3jIcA8S0ARgyzxJhKWVAaRT2rZmMQFmM3Yro4xg50haRdbGmqnBy4wSs3ectvhyKQ/dh7Ep75CkS64g9tQKuB0Olb0xLoJJitptpjvELXFBeU4O0k6sxasVOpFe2rNf29hFzKY7oLoSdQyhqhLyRZfpbY/qkMQijJz8rDHZLjGFsuhoXKIJLUQIc94cgh7JelYkQZ1ckiV7jyxEfeR7RwueyOF8sNRaOWbINYZnijkj0uY5TB7fD2HIPrmfXvyaqCxKxbfN6HEovRdFZF5gN3oRk6T5qylJhPaUzbC6mI3j9cEywcpFKzlocXTEQw4dsQEZpIuwW9IWfLKZNeagbfv11jXj/ZQlnYbJSF1++8Rzmrj4iHl8csgNd9OZhw6YlMDZeiqAbiggWFXkx2G+wDhdyWyNeScdEJcUcHpmDuGzpR47Yj54zrRDbwlFM2kfMJfCeZgrXIzI15JzFMvNxOBUdhR0TRmHJWgc4bDaE/pilOBV6AUu6z8N5qpjEO+HrD/8Hu1BBnGU3sMdiFY6e8cMKC0vs8jiCw9vWQ3e2M1Kq82HfZyB6TFkKB/eTuFFQX3mOOLUfU9YeFkWWcdIV68c7CHdUz7FtA2B5PgpBVuMxcKwpriYmIz37FlBZhIzwcNzKjoBtM/GZw4WTFgQcwiafg9g6bRgsl7uIJXP51V345qcvMHXNdjhsW4ipo3VwNpmq4DW4fnwbjtwW4I65X1S7A6woGeu1+8DC/jxauGBuJzErQrrOkIV0NZk6CpNXe+O8pyl6L9oltVurYD9zIQwszuOosw4sg/NQfH4dtHXnwXprDHJSj8HKwRtHDGdh5IQV8KC4T+57MHrgV9h+PQ4eY7pg3YFY8Uxyju+bA113hXiyGod03bQQ/YYa4vSNKqFdn4adk8dCa2h/fPbqsxi1dBciScClobBZ2LSYKaRrrdRMvrRsFEyWOot5KQq2xZ9z1+CGIgk2pj0wUQpql3n5ACKc9omfmQdHdcVcGo+NYwaij5EjUuuCqLUc7SNmCrauh6EDJ2PRokWirVy/XQwSd2ZXH/TapYzPXIMAy+3YYH4OQWf3YP6GYzi5dg8O2Nhh/wZbHD+6Cz7RobDXGYPeWtOwZLFwLqEKa7Z5J8LzsnBg5J+wORgpnUtJCZzN/sTG04qYmmKw9U96YaZ0H4sWG8M3rD5Uq4JKXHKxgZHeQIyZuQ4xWTHYvWQQpCCOIpVRnujaxbJBsHVlfGYSc2GwHQbYHILQFBfx2mmIIRvPiJ+LUs4h/bKD+Jl5cFRSzDV5EbCZNQEmtmelkqrlaa9qttdUUxz0bBhVkQg7vAh/ztsutIaJCuwQ2plztl5HSfZ17Jo0BL3MvBAfHYJd9jqYauSGwtpCnFwwDiusgsUjREoKUVlzC47DumHrbcHWK+C+YSDW+CnCr6ZRNXvCXsg0qEAoldfNW4VtZ2S9XMWnMGbqIBy+fgNO5n1hc6n+qBxfS/yusxlpsh9KLuai4O3orr9cKplrYGncB3qHFC+aWwknkBKwR/zMPDgqKWanBXp47/0uWLXNFrZbt8Bu9znktnDp3F5iPjTOANt3396LW3MrAtsnjIaB8WZsNtPHtPFLEZRNbYtkGHb/Jz6culfcb7vOD/hD10YUSqUghin9tTB7rXDMBiOs0FuKsBxBzP2/h9W+MHF/OacOrIS2FEQ97dhemPZb30Qg+2pcdreE9sRhWLFJOO/mzVg9ZzU2bT2B8ppaXPbYgQnjF2GDsH3z5vVYNn40bA5dbjD0dHJ2XyyYby/eY2nwVnzR5WsssbLG5sUT0G/iWoTnK/ZLPe+E4F2HFV+YB0YlxXzxwjls2rwRa9esxurVq7HB2g/ZGiHmKiQHBCMmrvFAjUReLPZTntdtwVWxC5uowvVzgThzVVFS5oacRmhInCA5BTmRLlgr/I1Wr7ZAcKqiXI876YWIhNvjJqdfO4S5y4RSUtit/GYCrvlFNOgAk5N5zRFrxPOuhu2+q2KnmZJk/0OwkNI8gqKlrfWkX/LD5ZB48ZiqvDih+n4RPg4WWL3GEqEZintEbQWuHtyAU0G5iu/MA6PaHWCtSPuIuZ2pzoTjniVYeSK0VQLY3ws5UYexa/YeyCrzzAPCYpby0SHELFCeegbuvh5Qjvy1FzeC7RAYw1JuSVjMUj46ipgZzYXFLOWDxcyoOyxmKR8sZkbdYTFL+WAxM+oOi1nKB4uZUXdYzFI+WMyMusNilvLBYmbUHRazlA8WM6PusJilfLCYGXWHxSzlg8XMqDssZikfLGZG3WExS/lgMTPqDotZygeLmVF3WMxSPljMjLrDYpbywWJm1B0Ws5QPFjOj7rCYpXywmBl1h8Us5YPFzKg7LGYpHyxmRt1hMUv5YDEz6g6LWcoHi5lRd1jMUj5YzIy6w2KW8sFiZtQdFrOUDxYzo+6orJhjTmzFnDlzsNL+eF0EwZakXcVceRMHN8wV8zdnzkLs8UhQbK/KgdfuVTCYS9sVtnilM9LkoXkKIrFllaGUbo2QFCmYekUmgvb44kZBfSCZqsyr2OPlj1zUIs7TAZsOXZJSBCqz4XPMCyFpJUi/5g1DA+X9CGaxD0ml0n6NuRWGkwGHkZyRCrelRpirPEawfacUoVqJ1GBbGErbTfb6KyJo1BbgygkHRGXLoswVJMBhxynEF9Znsjj+FPwDzzUbOofICj+Ai7FJ0jeGUEkxR7hvRh8dHez18MCGqUNh6XAKFRoRnxmozj2HlbojYbJpNzyE/Hm478a0QcNg4nQVNSXhGDtzJOZtO6hIE8xMdyImLfIGSbYs5SRmU6A4c3tF+g5rDB85DnsvCI99TTgsf56N0yn1Qim7uhM/65ggBjXw1emGZ554D67XpfSicEyboQPrc8nwdVyOn6da1l1zq4UOxizfgNQyeYQpogynPDZgkc953Io8CcNPtbH5kOIYD4+dMBzeD04XspB9cTummOrD/qAibcnUXtCZ4Yh84WW126AzDkbIYk+mHMevXy3EsTRB7pUFiLnqjUm//AND521EobQLKrMQGRaK0LAIpBYrRF+QfBQ79W2QXCJ7MXRwVFLM5+wPw+GIIiBZxt7xGLxY+GEbP1cPSPuIuRx+ZjOwaJNHg1hPBeGO2OXji/KMUOitX4MTslhqFWF7MP+3kYguqcaBDRMw2faClKLg+qHNGDPZGjfLk2DbdzHOyWKrll93RO9ZFogTrnvOcAX0uwzEHzpWiKE3Q0U05hvNws6gJBx324aZB+MUB4nkwmbZICw/2bDkK0q+BFPTLUgQXqzlkcdhNXQzZKGaEe48BKbHAhC4ajiGzdwubRXIOItdSzYiqTAPLqb9cSRaCh5HpJ1C3y4rcCZPeNFdPoAJRhMxtF8XLJ+zTRRzRWYINi7vh4EjxmDs0D/x3wmLEJmjqI1ECC8WjwBFvGlGpdvMhThsMQl/9hgG9wu3xzN+UNpFzBWxWDDTEm5XFWVObU0VSktLUaF8UeVchO6qpXAOz0dJSSkqa2oRvGcZRg/fiPTyOFhpdcNhueaI/KuwWT0E3pGxsB+0pBkxl+LU3FVwcz6NTcb9MGPjWSE1C0YLScw34OtmDb29VxUHSZw/sgHDbM9J3xRE+K5H7y0nxc8F149jTT8zhBaXCPcqWG40lk4ZgXV+SchPOouZf3bFoHGTMGHsGOwLkF4K1SmwX9qvSTGfyqhGdU6u+JKLspkN42kbQJFfy9OD4OF/QayZoCwM03/+AjZncugb8mOP4speb/Ezo9JirkLS1TPw87LDtFX2iCtq2aK5XcRcFoFpRuvhHqHoBSiK8oTuqEEY1Kc7Os+0QUZWJOZO+gM/9BC2DeqPH/73EX790wKXKcpb6UWs6tYdxxWx0uspvA7b9YPhfi0S9v2WI/BmvZgrI5zRZ6YFYoXWp98sEzi63UB1+ilM+HMCXANDsHzl/GbFfPHodgzZckb6RtTi9M6RWCS1u8sTT0L/zc/QXXho6MEZ1P9PTDNzRY6yrX0zFgFnj2H58N/x+Xc/Qs/IAwWVOdi/pB+8YmX1kvQz6Nt5OU6k1Qv8yoapWKy/EcrAt+nxEdhmPAP9B/fDz+9+iH3BipdhSfZVpJxzFD8zKirmgLNJuBgvdX/URsDw58nwkATQUrRPNTsfzrNnY4N7fSD0yooKVEU4oZu+GcIiLmDmOlM4RRSiuDgbh42Ho/PIpUIZKlCdhU0LtWDqJ6/YCiVk6BHMmLwQ0bduYo9QEvqnSwkCZaFb8Me8FUgWyjUS8+6918XtEUeWYeDAvuivtwB7g0nMWzFtvyJNyaFNEzDDI1L6RtTA26oPzD0ui9/yw6lkXolrRcXCvQom1CQUFMHfOwihstusyTiDGTP+xJ5rN+G1rjdco2RiTj2GHlrLcS6z/iWkEPMm4UzCdUK2YuSAnjAwP4WCqjTY9ukmlPTZ4n5lt2KRGeokfmZUVMyH1q+CjvE2pGRmIth9KQZONUNcQctGW2+vDrCCCHtM1R4Bx7PRyMrKRk5OKpzMJ+BtLVPciA/CpDXL4JYo5bUmDyaj30c//d3IKKtBSvBuaP05FruPxSBT+NtkRvhj2kgtLHa4IexcCc814zHF9DhuUlpmGg4aD4LOqr1iFfXoJEPY7roinpaaME6Tv0SnV36DkyCwY86W0N5wQnFOwa75rcHomdMQnCnrqBIIOWSIsfsUbfb8a94w62EmlPqNKYb7Sn101V2OKylZyM7OQfzpA5iuuwCXcspwyX4etOc7IlG6lv9aPYw2tIW8gzvYYgIMdNaJvdkxB6YLQt6A3PJCxPqtRY93X8Jmf0WnQmHKGUS57xc/M6paza5MhpvBZGgNGYK+s5bBL6PlB6faS8xEbqQfzGYMwhAhf0OGaEHfeA/C0/JQUxCB1Y67cFbW7q2+6YtZ/Udhlx8VuVXIDHSB3vihimMHzMPuExGK9qRAeWEWdqxeiMHieYfCyOwgcgqoFKxEoOV2ePnUN7irUk9g2hRd+MQXIdJ3K7r2HiDdzxD0MzSDf9rtA0M3Q1wxwmQbSoQWT0nCBexb4IjkpkYZqvLg5zAVWoMV5xs9divC0hQvhsriQnhvNMUI6Vqzl65H8q2G42AxzhawsXQRS+aq0lhsm60j5mmxxVqsWzMbZieixP2yr+2D/6FQ8TOj0m3m1qU9xay2lCdjp9UMbLvWGiP/90ZtdQ5OLl0rVOcb1h46MixmKR8s5rsjLeIQTHZuQmI76znt4jrYbz/R4vMP1BkWs5QPFvPdUomy4rz64bR2orI0D+Vo55tQMVjMUj5YzIy6w2KW8sFiZtQdFrOUDxYzo+6wmKV8sJgZdYfFLOWDxcyoOyxmKR8sZkbdYTFL+WAxM+oOi1nKB4uZUXdYzFI+WMyMusNilvLBYmbUHRazlA8WM6PusJilfLCYGXWHxSzlg8XMqDssZikfLGZG3WExS/lgMTPqDotZygeLmVF3WMxSPljMjLrDYpbywWJm1B0Ws5QPFjOj7rCYpXywmBl1h8Us5YPFzKg7Ki7makRcjkZ0+p0i9d4f7SvmCgR72sHGxkawPQgIlYKX1hQj9Mwh7LKj7QpzdL+Ihp6h8+HrvlORbuuDDGWIpqoCxJ8LR05Zve/ZmoJknLsWg2LUIvNaIPyuy2LXVBci7Po1JN2qQEHyVTju3lF3TTuPC83HxC5LQ1TUBWTl38KlA3thJx1jY2OL83GKgG5E2Q0/7JLSXM5LgeNqS3Ej4jzS5XHDyrJx3j8KWfLwsUVJSEiIUUTKLErF+WtRuCWLeEHk3ziHxHxlNCqGUGkxl4Tvw6//7Ik1xzOkLS1Hu4m5PAF7TaZj9nwDrFixAitMFmBEf33sOZUsPNgRmKDbG0NnmyjSBJvYbzSMtl8R5CiQH4bNU8Zg+GQjRfqchRgzfTH8bwipleGw6jwXZ2Txmcuv7ULnycsRKxztq9sFL7z+CwKVMaCKwzF91mRsC0zFacel+F//KXXXnK4/FDNsPVB4m0/qKoScsoGBixtuRp7GnPe6YMZyxTErVsyF3qgJ8AsvQnHCURiZC/e9TJE2dswgmFoHoKwmC7sNu8AtUhYFMsUXv3+3GMdTSbq1qMiLwZqRH2H0og2KYOvR+/HHlCU4n16K0rL647LDd2G7oSPyKtlxthKVFXONUAIc3twH334wHZv9NCSkq1DTuGw3F/oLNyFTVhDFHTXBUnt3lGddh94GC/hRLFOJ4ku2mP77RCQKz7Hv7pkYYuyMW3Vht6pxdNNCjJhxELdqErC9T3PxmStwfv4iDP3oB/Se6woxUlNZFAyk+MzH3LZhtocsFnNVFFbM7QvrIFlJLlCeHYn15utxSagqVEf7wmroFihCuCkIse0HU59AXFg1DCOM7KWtwr5hu7FwxGLEFRbA1aTpkK5ncmtRE+6BcTOH4JfvP8WiudsVtYPEw+gzehBGTtQSHtCeMNt+FKVS3LlgOwt4Xmn5F726orJiDjuyA2uPHIDBCFOs9U6RtrYc7SLmqiSsmGIOl4u3pA2NyLqASetW4ZgsgmKqz1qM77kIiaWp2DiuO5yiGjl+zw3GhmUj4BefgD0Dm4/PfNpgDZzt3DB/Wi+YHKJA9ulYIIq56ZCu/gfNMGLPRembgtgzdui7ThEPuSDsONYN2Yg08RtRjp1LtLHyWATSLjpixO89MXuFBaw2bkZouhQNqyIVDs3FZ86qQdWNeCQW5eDS5llYpr8RBZSecAhduv4C82MJKCqIwcqxP2LF8QTx0NxIDwQ6nhY/Myoq5srUQOzcd0SodWVh0UhTbPSTv/9bhnYRc2k4dJeuh1u0okVaHHMMsyaPwZjRozFxjTtu5URgzuTu+H3QKIwZMwpDtLQwoNcSHLycjdqyC1jVuTtOUsBHOYUR2L5hMA5ciYDDAFOcl8Vnrgjfj9518ZlN4eRxA/nX90K7+0wERsfCdPm8ZsUc7LMDgzeekr4pOLdPB3MOKqJAliecxIx3vsGA0cL9jxFMuxcGT92I6GzFyyb7rBe2brHEiK/+jfe+644VW4JRVZONfRSfOUYW0vXmafT9fQVOyuIzX9uoiM8sijnaBQNW2SBe6jjwd5qBXpaKF0pJxgUkntwrfmZUVMy7Nu/A9JW74eO9FwN+GgrdVceQI3uZtwTtIubaTGyfYoRdfqni1+qSbISHXkWEtxV+0l2B8OhgzF45F+u8LuPy5QCsHPQVfhi9WRGEpfwG1k7vg82XG0ZMrEk+A+NZU3E5Ixm7h8/Chfo+KFRG7ka3uWZIEEpNis+8a2+EuP3kVn0MnqwHHaHqbX9RErPjNTFNie/u2ZjoIt9WA8+1PbFais9cGOmL5V1m49BlulfBroQip5ReJOWIi0hTCJEoyUPUuT2YNFkL7pHpOLymDzwTZOF5M06jV5/lOK0svQWUwdbrxGy5E8pw3RcPzEOPVYfFzxW34pEV7ix+ZlRUzL5HD2PunDmYOWss/vfml/ht5AbE1D0dLUN7dYClnbHAxDF68E+qL52uOhniPwMWIzYmCFPXm8NTWXctiMbkfu9Bf9N5MWzrtWMW6KVliIBY6c1WloSVU0dAd81lVKEMrsaDsGiHQrBE0ObhGLh4i1DJBo5PXYyde6TSV3gxWA14Fw+/NwAu19Jw7MBmTNkXrkgTKIx1hq6eNo7GNfyjB7lMg76rouqdH+oDi/6WaFxREFKwe74e+i/YK3ySSDkDvfFjcfRGIQJsxmOi5Wmhta8g0XER+ulZIUX2sr68ThdGU6wUYo47iD969YBLtHBEdQYW6A7AwuMx4n5FN88j7qij+JlR4TazgnyY6qyFXaCsR6iFaC8xU8kV5mWLuRP7Y9iwYYJpYbiOCVz8o1CRcwVzNq+FV1J9KZV3ZRv6fdkTO05RR08eLu02x5DBgxXH9pmKpdsPI0t6L+QkhGLprBkYIp53GKbNWIfweOruqsSJ+WbY5yITbOhu/PFHdxyIyEeIuzk+/bWXdD/D0HOaPhxCZB1iEolCCdt/lavYs14UeQqbR21CXBOdyVW54bA1G4R+gxXnGzlkFXyDFG+owtQEbDGcjeHStaboGeBC5E1Fb71E6LZ5WDnfBuKAXdJRjJgzCjP0R2PYgD+ga+qOfCm/ueEHcd7pvOILo+pirkFJUSnKKht1+rQA7SdmBUWZieLfMj4+AbnKQd3aKhSXld4WYbEkNwu5hfUCz01PUhybmCVtqae6NKf+vHXD87WoLClFeYWseitQXlqIcmFTTXkRbqZI5xQsMadhVV5JdUEk1q+cBrdE4UtNJcqKyupK2NuoyceNBMX5bqRR2HQZFflIkq6VWXh7+6m6rASlJWUKgVdXoLi6CgWZwv0l3EB5neorcGnjWlxKaHTuDoyKi7n1aG8xqyfVCA/ag7k7diC1nWOcZ1yxxnbTgyhq9m3S8WAxS/lgMd8lVXlITQ5HQX1FoV0ozgxHZnk7R3xXMVjMUj5YzIy6w2KW8sFiZtQdFrOUDxYzo+6wmKV8sJgZdYfFLOWDxcyoOyxmKR8sZkbdYTFL+WAxM+oOi1nKB4uZUXdYzFI+WMyMusNilvLBYmbUHRazlA8WM6PusJilfLCYGXWHxSzlg8XMqDssZikfLGZG3WExS/lgMTPqDotZygeLmVF3WMxSPljMjLrDYpbywWJm1B0Ws5QPFjOj7rCYpXywmBl1h8Us5YPFzKg7LGYpHyxmRt1hMUv5YDEz6o7Kirm6tAh5uTnIycnBrZLyBuFLWoL2EHNtdTkK8oQ85eahqLAIhbdyhfwJn4tKUVRSclsey0uLUdXywTwYDUU1xVwei3VTx6LfoMEYPFgLk/ecEgOntSTtIebSG2dgMkkLWgP74IdfvsfPPQdAS0sHmze6Y9H8kZi6TRkPuRZxJ1dCe8YyREkhUhnmr1BJMRcEr4elk0t9FMFWoF2q2bW1qKmuRnVRLBZazMPqoFxUC99ramqRH30M/Tv3xq7AW6jMPIMBA/ph19XsFq+RMJqLSoo5ymUjdEd8i6EjRmDwAksE59cHEG8p2rXNXH4DJhsXYf1lMc5hHWF75mFk9zHQnzgaFvvqQ7MyzN2gkmKOcLSHuZkdImNjcVJ4wPvPsURScctGCGtXMZcmYtmGhbAKblz3SIN+56fR6aslYkxlhrkXVLYDrJ5EWHadCc/wlg0SpopijvXZij59+qB7txFYfylV2sowd4dKinmnxWFs9ExQfCkKhGn/1QjOlCJstxCqJubyBA9o/9EXO4NLUHB5A7p1GQnfFCmRYe4ClRTzFfvtmNJbBxusrWE0byTMD/jj9pDcD0a7irkkDvNXzYJZ0C3xa0FSIOb0+wUT954Tvwtqh+uiwfix+xKkZbVz7FRGbVDZanbcYUeYm5tjtcsp5EnbWpJ2FXNVIYLDLiA0S1HbuBV3CvbbjyJL3s9XFAU3m/1ITWcxM3eHGrSZW4d2FTPDtAIsZikfLGZG3WExS/lgMTPqDotZygeLmVF3WMxSPljMjLrDYpbywWJm1B0Ws5QPFjOj7rCYpXywmBl1h8Us5YPFzKg7LGYpHyxmRt1hMUv5YDEz6g6LWcoHi5lRd1jMUj5YzIy6w2KW8sFiZtQdFrOUDxYzo+6wmKV8sJgZdYfFLOWDxcyoOyxmKR8sZkbdYTFL+WAxM+oOi1nKB4uZUXdYzFI+WMyMusNilvLBYmbUHRazlA8WM6PusJilfLCYGXVHRcVcitN75kN7+AiMGGKEAxfTUdXCsU3bU8ylqcHYMH84RowQ8jdiHEw2nEcJ+cOvSsN2sykYqk3bFTZWZy0u5yiOo7jNxRHHYDBttCJ9mDHcL0gxbMqT4WXigIjc+gB7lTdOw8TWDenCcVdtTKG32gV1QX7KU7Frjy184/IRd3Y3Bg3Rrrvm0JlmOH+zZcMBMa2PSoo58Yglhujowy8iFlEnHWG0/TAyWvjZai8xlyQcxOwRw2BzJAjR0dGIjjyP5eP7Y7rNaVQVhmPcIn1s8A1XpAnmbDoTo3R2oUQ4Nue6M0Z018YGlwuK9HNemKg9GKsOZQmpkVjfeS7OpNSHxSi/tguddZcjBtXwmzIALz/8OjaclOJbFYdj+ixdbD2XhGNOa9DfzK3umqcOLMKIufMRnseCVidUUMzVsDRzhpVbjPS9dWgfMRfh0PyZsNh/UfoukX8R/tdCUJlxFVPWr4ZvXUkslK7h9ljw+3BEFJfDfsUwLPRMklIUZF1wwRRdU8QVJmFHv8U4lyYT83VH9J5lgTiUIWDBaiwbpYcuo+bjPIW4qo7DfKNZ2Bl0A8fdtkLfWR4Pugou60Zhnmfr/gZMy6KCYi7HIpeTWLB+FfSGD0b/cYY4mpAnVBRblnYRc1kkZsxfD3cpPG11SQ6iIsIQEZuK3MJKIDcYU0zmYKPPFYSFXUds4g0cMl+AiTOckVcRDste3eCTKB5aT2EYbNcNhkdYNBwGLW1GzKXwm2MG90MhOGg1AuONDqC2JhuLFivE7OtmDb29V6WjFFzw3gZt67PSN0YdUMmSefFaCwy3cEVmRjoijq+A1rgFCM3TgGDr5dGYO8cK7mFF4teiGB/MmDQSowb8gY/HWiD5ZgTmTemOzgNGYuTIIfj89RfwTa+tyKCdS0Kwqm83eMWLh9ZTEIrtawfjSHg09vQzRVC6rM0c6YzeMy2EanYJ/GaZwMFVeBOUhGP2wFFY7+kLU7MFzYo50GsLtG0CpG+MOqCCYq7Egn1nYXdVatvVhGPBL5NxOEITgq2XwmfJDCy3O9mwppFyCN2mmSEsPBAzNlnAJ1OxOcLBGF2H6uJaLn0rxA6z0ZjpdF1MU5J4YhfGT1qLlJIs7NEdAZ/4GilFOOKCOX4zWIGb1GaeuQy7HULF7VkXrTG0y7f4cfhc7AtJFqvZ012jxTQFxdhjNhSLjzV+czCqjEp2gIV42sBwxXKcDAjAYbsZGDpnFeKK6x/SlqC9OsAq0o9j0VhtWNgfQYCQv3PnTmDlDG18Od4KN5MCMd5sMVzilGFcK7Fj3tf4qbcxwjLLURjviUk9B2PpVi/x2IBDezFKezisT1DQ2xqc2m6IMTN24jSlBZzGJn0tLN7mJaTUwnPCPNjsuKw4rbDFb1l3dHrhazhezcDxfWboZminOKdgLrvnYIzxSsQXtWxtiGldVFLMVNW+6r4KU4Sb0zHahKt58sDFLUN7iZmoLYjB7hWTxD8+2artp1FcLZTVJYmwP+aJK9kyEZVEYvNcI7gEUI+1cOzNizAz0lMcq7MGp6OkGoxIJXz3rZfOOxlW9kFQ/OUqEbbPA+eDUsVvIgVh2GS1GoGpZUi+eKDuXsgmrnNAQpm0H6M20G+nfJ5VSMytT3uKmWFaAxazlA8WM6PusJilfLCYGXWHxSzlg8XMqDssZikfLGZG3WExS/lgMTPqDotZygeLmVF3WMxSPljMjLrDYpbywWJm1B0Ws5QPFjOj7rCYpXywmBl1h8Us5YPFzKg7LGYpHyxmRt1hMUv5YDEz6g6LWcoHi5lRd1jMUj5YzIy6w2KW8sFiZtQdFrOUDxYzo+6wmKV8sJgZdYfFLOWDxcyoOyxmKR8sZkbdYTFL+WAxM+oOi1nKB4uZUXdYzFI+WMyMusNilvLBYmbUHRazlA8WM6PuqKSYr12+CFtbW9F2O+yHm1sA0inaeAvSXmLODjsPJ/uddflzcDuKAimtTSiKR3jsVeTlZiHAyQE7pPuwtd2JqzdLpZ2Ev0+0V909el5ThMZBRT4SIy4gWxa6pqYwHefOxaJAjIRXgzA3R/GY/SEpYnpVTjSup1NAaKa1UUkxnz97EqamplhhZoZJvT/ECz9PRnihlNhCtI+YK+A1aQIGD5gq5o9s3oR+MLFwgjK+ek1FOcor6mNr3U24vIpyOqZxkLdqYVslahqEmyzBCc91MDl6AjcD3DD53T8xV7oP08WTMXXCDFxKrkFuhCvmLB8LYzFtMYaPGIJN+66jqiwcW+b2wAmFTkXKrx3ADz+sRkRNKYKsF2LKQD3xfKNm6OBw2E1UZVzElvVbcT2/5eOFMQ1R8Wp2ItaM0sFav8YRxh+c9hFzCbymmuKA503pu0D2CSxZMBBBhVXI8raBbq9Bwg/RH9aekajIChbEbg8xKGT+FViMmYAz4qG3cPqQHc6kFuOixxr0HaSFQT0nYKs3laDlOL14B4wNdDFoiinOp5XTASIFiRexZrUNogXdF55xhdWEvZDHh/O17IK156LgN68rJlr5SVuBnOOrsVB3HZILkrDLWAun06QEgfLrHuj25xbE34qG8fDFOBilEG2K31r0Mjsifg51t8bcDf7iZ6b1UGExVyNglxGmzdzeKtXQ9hFzKbynmcD5UJL0XbiPy86YYmiA00E+mDF4Mk7EFaLwxiks6KeDTT7BsNefDO/EatRe345PfvwdW87kobogHDaWNji+1xbzLQ4iRyh9a9NCMFvXCAG56dg78DeMXOWJwqISVMmK5sDDGzF0myKA+s2TgpjH7Zb9bQuxzkALWy6mI8FvPQZ27g9jC0tstN6OeKlWVJ17FTaLmhBzt3UILa0RriVtFAhYMxk6G0+Jn29FHMMeXUMUNqglMC2N6oq5NA6r5gzG+ktF0oaWpX3EXIXjM3XQ7df+GDt2rGj9evYWRJuMQJeJ6GntLe0H+JhtwDKTs/A+Pg/zjyfg5mErLF20BjtWnkds5H5sOeoPV73x+KPzYOhMmIAJOhPQs/c32HE9Hp7jemDHoVjpTEpq4Gk7BsbH48RveRdcMOHt7zFEuo+xWl0wcr4DUqQ/d5KXCzZvWone7z6H//02CJudYlFdEQnbhVpS7UBBRfhhdPvDEtdkRfy13abo22carmdXiN/LMy/Ca/tQxLdsvHymESor5tyQA9Abugwx9bXEFqV9xFyOo/qGWGHmipCQENGuxypK6TM7B6OH7THxs1DOwm+1NVaaByL2si/WGtth80oPoWrtBBfH5bDfsR+h2fHYO2Es5q90xrUrl3H5cijiMvJRUZOPfdrdsPVAhHQuJUXYZ9oVW04rGryZZ12xpOdC+Ej3EXIlFPmVVHQWIyo8A8pw79X5mbh21AJjZ0zCyehoOK4cgLNSfxhRGe2BP/paIlzUbQWu2i/HgN5TsT9G1mOZH4sAjwWI4H6wVkVlxRywdxK6W3gIj3Xr0F5tZs/Jxtjrqigd5aRf3IGhQ+YhnEqv8miYDBiLFV43UVMRi/VDP8BHi12Ql5chiLo/ekzbL5Tx1YiymyP8gHuECjJRiVBXVyQW5GD/0D+w2SVc3FpPLbx36WCBj6LETjvhDIsRtsgVv8moyYTFpHEYY+lTJ+jK0AMYO2k6Lqbm4eDq4Zi9K0xKAa5s0scAw73CKwCI2LEI40YZ4Wqjk5alB8JzsxYSW3hEgmmIioq5Gl4bB2PRoUvS95anfcRchuPzzLH/QJT0XUZNIS5bL8OY3trQ1uoJE+ujUBRk2Vg1sSe0liqq4N5GwzB96T6F0CqysG3+QHTTEo4Z2gMrV+1DWnEp3HUGYofH7de46G2NYZsUpX/m2UPYOGkn0sVvDSm5GYK1C3uh/zDhvNragkA34PyVTDEtKzYMq/X1xO3a2kMxc5YJrifkAUI7Xu+Xt/GlUCUfP3oEhmsPx0Lz00JdRKjSh/vATtcExdxmblVUVMy1KC8uQEXl3QzM3B/tI+ZaVBaXoLy88TCSkhpkJsQiNiFFFIGSitJKlJZLf4uyElSVVtTXWKpzkBgnHBObIJT7CsoLC1B221AVUHrzHFYsn4dT2cKXqgqUFpU1P/QlvCjiY+m8sUjJqB9/FinOQZyYFofsUuk61aXIyc1EanKieAxZcpqiznDJzRpG7k28wJgWRXU7wFqZ9hFze1OOc74bscjxAHLbaNi3LPk0Nm3eiYSS1nsxMwpYzFI+OoaYBcpvIulGNEqaqxy0MJW3kpF0ixvLbQGLWcpHhxEzo7GwmKV8sJgZdYfFLOWDxcyoOyxmKR8sZkbdYTFL+WAxM+oOi1nKB4uZUXdYzFI+WMyMusNilvLBYmbUHRazlA8WM6PusJilfLCYGXWHxSzlg8XMqDssZikfLGZG3WExS/lgMTPqDotZygeLmVF3WMxSPljMjLqjmmKuzYen6TwMHzkSw4w3IuJWy6+kb08xl6dfwaYFwzFSyN/IEeOxYnMQysgPUNVN2JlPxbDhIxRpgo3TXYdreYrjiNKYkzDUH6NIH7YEh4MlV5nlyTi63BGRufULlStvnMHyHe7IQC2u2a3AdMuDdX69UJ6KPQ47cCKuAPH+9hg8TLofwYbNWoULGU3/zcvTA7DPyx4JyTHYOmo4ho9QHDNypDbW7vVDuXhYNa4cW4oxUprOKiekk8O/2lyc3r8Sl9Lq7gLIDcPKJS4II5+/lalwnaUnHjN01S6k19QAGRfg6huAQvZt8JeopJgjHOdh0ERDBEZE4JjtdOhtO4CiFv4x20vMpUnumDtKG9aHAhAeHo7w0LMwGdsfM7efQVVROMYtnArLo1cVaYI5Lp2B0br2IMc9ueGuGP2nNiz3nVOkn/HAhOFDYXE4WxBKJKx+nYszKfUiLL+2C511lyNGEJff5P7458P/wuZTkqds4Vr6s3Sx9dwNHN+/Gn2Xu9Rd09fZCCMNFiAiTyY6orYIXvvWwTwwGiVRvljy43Qcua44Jjz8LFaP747tZ5KR4rMSE5YtxrnQCEQIv+HOxf0xZIgVMivy4GD4B9wiZE6RUnzx+3cmOJ+fDYfJo6E7Z6d4PucNUzDP/hSqKwpwdMtq2AbV+xpnmkYlxRy8YRyGG24VHkEg79QKjLTcjVst7BmjfcRcBA/DmVjtGCR9l8gLxKkrwajMuIop69fAVxmrRqAq3B4LfhuOiOIK2K/UxoLDCVKKgoxAJ0zWXYH4oiTY9RMElCYT83VH9J5lgTiU4dyC1VgyfDL+GLUAgflCYnUs5hvNws4gQcxuW6HvHKk4SKQSTmtHwsArRvquIC/mDAxMbMVQOqXhx2E1ZJNQ6tcTfmA4TI8F4MK68RisYyE5JBQojccZe1ekFebAyaQ/jkTLxJx2Cn27rUZQaioOO/jiYoriBVJ2zR6d5+0A3WpJlBf0dLYjvY28o6grKinmsrRgbF41BP2HDYPerJk4GdPyb+V2EXN5FGYarIf7dYWn+erSPMRGRyI6MR35xYIIc4MxxWQuNvuGIjIySqjKpuLIGiNMmLYfueURsOzdDT4NtQwUhsF23WB4hEXDYdDSZsRcCr85ZnB3D4ar5XBMWOQulLLZWLRYIWZfN2vo7b0qHaUgyHsbhm5tGFIm7Kg5+tudET8XRfhiZTcDHI2IFO5VsMtHMWXEWGw/l46yvEiYDemLnlpD0OPXH7B0z2mFZ87aVNgv6Xe7mLssx8mbMqXW5GLv5IEw3X0OYm4Kw2E5cSCcouRuDpnGqKCYy+C5dD4Ml+1DkvC2vuq5CmMMrJBQ2LKv5fYRczTmzLWCe5hCzEXRPpiuMwIj+v+B/41bi5T0CMyb0h2/9he2jRiMz//1D3zTyxo3SQglIVjVpxu848VD6ykIhe3awUJ1Nxp7+pkiUFZ8VUY4o/dMC6GaXQK/WSZwcE0EisMws/8obPQ+CVMzw+bF7GVdF8pGQS1ObBsME49g8Vt5wknMePsr9BXa9yNGCKY9BGb2Z6B0IoqaUqSnxQklsR56/dkZo6Zsx83iHDgv7QdvMXiWRPpZ9O28HCfSFNEvUJODvdNHoNvkDUiWNqEqCxaWQ2F4MlXawDSFCoo5FQYD58LIVerYqbkOw58n43BEy8Y2aZ9qdgm8F8/Ail2npe8SKYfQTd8MYeGBmLFpDY5KddfQXUboOkwP18X6agHsVo7EHBd5dRi4cWoPJk5ag+TiTOyZNArHEus7F4oursZvBiuQJpRvfjOXYbdDqLg9I2gThnT9Ab+MnIt9IcliNXu6q9wVbgkczIdhoY/cWX8tjm3qjxUeIeK3W2HHsW7wesgCQkrkw2OHGzyvyX6vmjDMntkFdpdv4uj63th1RRZyKF7I+7DluHRLeGNVpcJ5sS70Fu9Fg7pYdQ4s14/CPHn4SeY2VFDMlTi9Zj6mjDfH2aAgOFvpYdAioXQqa9kesPbqACtP84HRWG2sczyKICF/QUGnsWrWcHw+bh1uJgVhvPliuNSVXBXYPvsr/NLPBOFZ5ciPPQydnkNgut1HcaznfowZPhybjlEIiRr42Rhg7Kw9CBDP6w/rGVpYaH1ESKmF14R5sNlxWXFaVMN3SVd0evEbOF5Nx/F95vhz4S7pfoLg5mCAMYtNEVdYX2Unrnouw9A9ivZ+/jUvLO9qiqjbHNuX47TNQvQYOxUHzyjO57vbDoZzrBBTXInQA6uhPcUKftK1nBaMxSzzA6ioLsXBmT3wY+cJ8Dx/FdcuXcCV0JuK3veiSFhM7oFdoezl806oZJuZOorOrDbG+PHjMVaoYofIhltaivYSM1FzKwp2y8aL+SNbbn0CBeTwvzgBu7w9EJIly29xOKxmGMDprCKiRHVKIEwNJimOHWuGExGycavaChx1sJTOOxFrd56DGD5KkESogxv8z8tKtvxrsFqzAudSSnEjyBnjxtXfz9g1uxDXyO89kX3dE5OMV4PiwZWnXsfRjd7IuE3MRA0ifVdCRzqf/mwnpCqbu7W1uHJgq/CyVqSZWjsr2tMVKdi+XA/jdCZj8qSJYtr8pUfFDrCyG36Yq7cdqcpqN9MkKirm1qc9xay2VGfBabsBVgWkNh8Jo6WpLsGpnWthJbTtmTvDYpbywWK+OwqSTmLTvi1IbKPwrFUpAdhz0Bs55U1WARgZLGYpHyzme6FW+NdGCNVy5u5gMUv5YDEz6g6LWcoHi5lRd1jMUj5YzIy6w2KW8sFiZtSdBxazr6+vlKJ+yPOxa9cuaSvDqCfTp0+ve57vS8x//vkn9PT01M4mTpyI5557ri4fP//8c5P7sbGpi8l1eV9iZmNjUz27azG/9dZbTZ6AjY1NNaxPnz6SYhvSQMxRUVEYO3Yshg0bxsbGpoKmpaWFpUuXSoptSAMxV1RUoKSkRPyfjY1N9ay8vBxlZWWSYhvSQMwMw6gvLGaG0QiA/wdFH5ZH36ukwgAAAABJRU5ErkJggg==;" vertex="1" parent="1">
          <mxGeometry x="-880" y="150" width="129.11" height="280" as="geometry" />
        </mxCell>
        <mxCell id="A5pwChIiv2BdeN_x7Tfh-37" style="edgeStyle=orthogonalEdgeStyle;rounded=0;orthogonalLoop=1;jettySize=auto;html=1;exitX=1;exitY=0.75;exitDx=0;exitDy=0;entryX=0.131;entryY=0.998;entryDx=0;entryDy=0;entryPerimeter=0;strokeWidth=6;endArrow=none;endFill=0;" edge="1" parent="1" source="9Q_260vBjeD41utI28-m-204" target="9Q_260vBjeD41utI28-m-216">
          <mxGeometry relative="1" as="geometry" />
        </mxCell>
        <mxCell id="A5pwChIiv2BdeN_x7Tfh-38" style="edgeStyle=orthogonalEdgeStyle;rounded=0;orthogonalLoop=1;jettySize=auto;html=1;endArrow=none;endFill=0;strokeWidth=6;" edge="1" parent="1">
          <mxGeometry relative="1" as="geometry">
            <mxPoint x="-1170" y="386" as="sourcePoint" />
            <mxPoint x="-1170" y="690" as="targetPoint" />
            <Array as="points">
              <mxPoint x="-1170" y="386" />
              <mxPoint x="-1170" y="688" />
            </Array>
          </mxGeometry>
        </mxCell>
        <mxCell id="A5pwChIiv2BdeN_x7Tfh-39" value="Power cable" style="text;html=1;align=center;verticalAlign=middle;resizable=0;points=[];autosize=1;strokeColor=none;fillColor=none;" vertex="1" parent="1">
          <mxGeometry x="-1330" y="620" width="90" height="30" as="geometry" />
        </mxCell>
        <mxCell id="A5pwChIiv2BdeN_x7Tfh-40" value="Power cable" style="text;html=1;align=center;verticalAlign=middle;resizable=0;points=[];autosize=1;strokeColor=none;fillColor=none;" vertex="1" parent="1">
          <mxGeometry x="-1159.5" y="645" width="90" height="30" as="geometry" />
        </mxCell>
      </root>
    </mxGraphModel>
  </diagram>
</mxfile>
